<?xml version="1.0" encoding="utf-8"?>
<!-- Generator: Adobe Illustrator 23.0.1, SVG Export Plug-In . SVG Version: 6.00 Build 0)  -->
<svg version="1.1" id="Layer_1" xmlns="http://www.w3.org/2000/svg" xmlns:xlink="http://www.w3.org/1999/xlink" x="0px" y="0px"
	 viewBox="0 0 1589.1 395.1" style="enable-background:new 0 0 1589.1 395.1;" xml:space="preserve">
<style type="text/css">
	.st0{fill:#414042;}
	.st1{fill:#9D9D9D;}
	.st2{fill:#FFFFFF;}
	.st3{fill:#76AFFF;}
	.st4{fill:url(#Rectangle_221_1_);}
	.st5{fill:url(#Rectangle_222_1_);}
	.st6{fill:url(#Rectangle_238_1_);}
	.st7{fill:none;}
	.st8{fill:url(#Rectangle_240_1_);}
	.st9{fill:url(#Rectangle_243_1_);}
	.st10{fill:url(#Rectangle_228_1_);}
	.st11{fill:#FAE995;}
	.st12{fill:url(#Rectangle_236_1_);}
	.st13{fill:none;stroke:#414042;stroke-width:1.5;stroke-miterlimit:10;}
	.st14{fill:none;stroke:#9C9C9C;stroke-width:1.8;stroke-linecap:round;stroke-dasharray:0,6;}
</style>
<g id="Group_2769" transform="translate(3245.809 4758.922)">
	<g id="Group_175" transform="translate(-2883.352 -4667.391)">
		<path id="Path_258" class="st0" d="M168.9,239.4l-17.6-25.7h35.2L168.9,239.4z M154.2,215.2l14.8,21.6l14.8-21.6H154.2z"/>
		<path id="Line_333" class="st0" d="M198.6,215.2h-59.4v-1.5h59.4V215.2z"/>
		<path id="Line_334" class="st0" d="M202.3,210.3h-66.7v-1.5h66.7L202.3,210.3L202.3,210.3z"/>
		<path id="Line_335" class="st0" d="M143,209.6h-1.5v-5.9h1.5V209.6z"/>
		<path id="Line_336" class="st0" d="M146.7,209.6h-1.5v-5.9h1.5V209.6z"/>
		<path id="Line_337" class="st0" d="M191.4,209.6h-1.5v-5.9h1.5V209.6z"/>
		<path id="Line_338" class="st0" d="M195.1,209.6h-1.5v-5.9h1.5V209.6z"/>
		<path id="Path_259" class="st1" d="M168.9,297.9c-0.5,0-0.9-0.4-0.9-0.9l0,0l0,0c0-0.5,0.4-0.9,0.9-0.9s0.9,0.4,0.9,0.9l0,0
			C169.8,297.5,169.4,297.9,168.9,297.9z M168.9,291.9c-0.5,0-0.9-0.4-0.9-0.9l0,0l0,0c0-0.5,0.4-0.9,0.9-0.9s0.9,0.4,0.9,0.9l0,0
			C169.8,291.5,169.4,291.9,168.9,291.9L168.9,291.9z M168.9,285.9c-0.5,0-0.9-0.4-0.9-0.9l0,0l0,0c0-0.5,0.4-0.9,0.9-0.9
			s0.9,0.4,0.9,0.9l0,0C169.8,285.5,169.4,285.9,168.9,285.9L168.9,285.9z M168.9,279.9c-0.5,0-0.9-0.4-0.9-0.9l0,0l0,0
			c0-0.5,0.4-0.9,0.9-0.9s0.9,0.4,0.9,0.9l0,0C169.8,279.5,169.4,279.9,168.9,279.9L168.9,279.9z M168.9,273.9
			c-0.5,0-0.9-0.4-0.9-0.9l0,0l0,0c0-0.5,0.4-0.9,0.9-0.9s0.9,0.4,0.9,0.9l0,0C169.8,273.5,169.4,273.9,168.9,273.9L168.9,273.9z
			 M168.9,267.9c-0.5,0-0.9-0.4-0.9-0.9l0,0l0,0c0-0.5,0.4-0.9,0.9-0.9s0.9,0.4,0.9,0.9l0,0C169.8,267.5,169.4,267.9,168.9,267.9
			L168.9,267.9z M168.9,261.9c-0.5,0-0.9-0.4-0.9-0.9l0,0l0,0c0-0.5,0.4-0.9,0.9-0.9s0.9,0.4,0.9,0.9l0,0
			C169.8,261.5,169.4,261.9,168.9,261.9L168.9,261.9z M168.9,255.9c-0.5,0-0.9-0.4-0.9-0.9l0,0l0,0c0-0.5,0.4-0.9,0.9-0.9
			s0.9,0.4,0.9,0.9l0,0C169.8,255.5,169.4,255.9,168.9,255.9L168.9,255.9z M168.9,249.9c-0.5,0-0.9-0.4-0.9-0.9l0,0l0,0
			c0-0.5,0.4-0.9,0.9-0.9s0.9,0.4,0.9,0.9l0,0C169.8,249.5,169.4,249.9,168.9,249.9L168.9,249.9z M168.9,243.9
			c-0.5,0-0.9-0.4-0.9-0.9l0,0l0,0c0-0.5,0.4-0.9,0.9-0.9s0.9,0.4,0.9,0.9l0,0C169.8,243.5,169.4,243.9,168.9,243.9L168.9,243.9z"/>
	</g>
	<path id="Path_285" class="st1" d="M-2676.2-4457.9c0-0.5,0.4-0.9,0.9-0.9l0,0l0,0c0.5,0,0.9,0.4,0.9,0.9s-0.4,0.9-0.9,0.9l0,0
		C-2675.8-4457-2676.2-4457.4-2676.2-4457.9z M-2670.2-4457.9c0-0.5,0.4-0.9,0.9-0.9l0,0l0,0c0.5,0,0.9,0.4,0.9,0.9
		s-0.4,0.9-0.9,0.9l0,0C-2669.8-4457-2670.2-4457.4-2670.2-4457.9L-2670.2-4457.9z M-2664.2-4457.9c0-0.5,0.4-0.9,0.9-0.9l0,0l0,0
		c0.5,0,0.9,0.4,0.9,0.9s-0.4,0.9-0.9,0.9l0,0C-2663.8-4457-2664.2-4457.4-2664.2-4457.9L-2664.2-4457.9z M-2659.4-4454.4
		c0-0.5,0.4-0.9,0.9-0.9c0.2,0,0.4,0.1,0.6,0.2l0,0c0.4,0.3,0.4,0.9,0.1,1.3c-0.3,0.4-0.9,0.4-1.2,0.2l0,0
		C-2659.3-4453.9-2659.4-4454.1-2659.4-4454.4L-2659.4-4454.4z M-2654.7-4450.7c0-0.5,0.4-0.9,0.9-0.9c0.2,0,0.4,0.1,0.6,0.2l0,0
		c0.4,0.3,0.4,0.9,0.1,1.3c-0.3,0.4-0.9,0.4-1.2,0.2l0,0C-2654.6-4450.2-2654.7-4450.4-2654.7-4450.7L-2654.7-4450.7z M-2650-4447
		c0-0.5,0.4-0.9,0.9-0.9c0.2,0,0.4,0.1,0.6,0.2l0,0c0.4,0.3,0.5,0.9,0.2,1.3s-0.9,0.5-1.3,0.2l0,0l0,0
		C-2649.8-4446.4-2650-4446.7-2650-4447L-2650-4447z M-2645.3-4443.3c0-0.5,0.4-0.9,0.9-0.9c0.2,0,0.4,0.1,0.6,0.2l0,0
		c0.4,0.3,0.4,0.9,0.1,1.3c-0.3,0.4-0.9,0.4-1.2,0.2l0,0C-2645.1-4442.7-2645.3-4443-2645.3-4443.3L-2645.3-4443.3z M-2640.5-4439.6
		c0-0.5,0.4-0.9,0.9-0.9c0.2,0,0.4,0.1,0.6,0.2l0,0c0.4,0.3,0.5,0.9,0.2,1.3s-0.9,0.5-1.3,0.2l0,0l0,0
		C-2640.4-4439-2640.5-4439.3-2640.5-4439.6L-2640.5-4439.6z M-2635.8-4435.9c0-0.5,0.4-0.9,0.9-0.9c0.2,0,0.4,0.1,0.6,0.2l0,0
		c0.4,0.3,0.5,0.9,0.2,1.3s-0.9,0.5-1.3,0.2l0,0l0,0C-2635.7-4435.3-2635.8-4435.6-2635.8-4435.9L-2635.8-4435.9z M-2631.1-4432.2
		c0-0.5,0.4-0.9,0.9-0.9c0.2,0,0.4,0.1,0.6,0.2l0,0c0.4,0.3,0.4,0.9,0.1,1.3c-0.3,0.4-0.9,0.4-1.2,0.2l0,0
		C-2630.9-4431.6-2631.1-4431.9-2631.1-4432.2L-2631.1-4432.2z M-2626.4-4428.5c0-0.5,0.4-0.9,0.9-0.9c0.2,0,0.4,0.1,0.6,0.2l0,0
		c0.4,0.3,0.4,0.9,0.1,1.3c-0.3,0.4-0.9,0.4-1.2,0.2l0,0C-2626.2-4427.9-2626.3-4428.2-2626.4-4428.5L-2626.4-4428.5z"/>
	<path id="Path_257" class="st1" d="M-2994.6-4364.8c0-0.5,0.4-0.9,0.9-0.9l0,0l0,0c0.5,0,0.9,0.4,0.9,0.9s-0.4,0.9-0.9,0.9l0,0
		C-2994.2-4363.9-2994.6-4364.3-2994.6-4364.8L-2994.6-4364.8z M-2988.6-4364.8c0-0.5,0.4-0.9,0.9-0.9l0,0l0,0
		c0.5,0,0.9,0.4,0.9,0.9s-0.4,0.9-0.9,0.9l0,0C-2988.2-4363.9-2988.6-4364.3-2988.6-4364.8L-2988.6-4364.8z M-2982.6-4364.8
		c0-0.5,0.4-0.9,0.9-0.9l0,0l0,0c0.5,0,0.9,0.4,0.9,0.9s-0.4,0.9-0.9,0.9l0,0C-2982.2-4363.9-2982.6-4364.3-2982.6-4364.8
		L-2982.6-4364.8z M-2976.6-4364.8c0-0.5,0.4-0.9,0.9-0.9l0,0l0,0c0.5,0,0.9,0.4,0.9,0.9s-0.4,0.9-0.9,0.9l0,0
		C-2976.1-4363.9-2976.5-4364.3-2976.6-4364.8L-2976.6-4364.8z M-2970.5-4364.8c0-0.5,0.4-0.9,0.9-0.9l0,0l0,0
		c0.5,0,0.9,0.4,0.9,0.9s-0.4,0.9-0.9,0.9l0,0C-2970.1-4363.9-2970.5-4364.3-2970.5-4364.8L-2970.5-4364.8z M-2964.5-4364.8
		c0-0.5,0.4-0.9,0.9-0.9l0,0l0,0c0.5,0,0.9,0.4,0.9,0.9s-0.4,0.9-0.9,0.9l0,0C-2964.1-4363.9-2964.5-4364.3-2964.5-4364.8
		L-2964.5-4364.8z M-2958.5-4364.8c0-0.5,0.4-0.9,0.9-0.9l0,0l0,0c0.5,0,0.9,0.4,0.9,0.9s-0.4,0.9-0.9,0.9l0,0
		C-2958.1-4363.9-2958.5-4364.3-2958.5-4364.8L-2958.5-4364.8z M-2952.5-4364.8c0-0.5,0.4-0.9,0.9-0.9l0,0l0,0
		c0.5,0,0.9,0.4,0.9,0.9s-0.4,0.9-0.9,0.9l0,0C-2952.1-4363.9-2952.5-4364.3-2952.5-4364.8L-2952.5-4364.8z M-2946.5-4364.8
		c0-0.5,0.4-0.9,0.9-0.9l0,0l0,0c0.5,0,0.9,0.4,0.9,0.9s-0.4,0.9-0.9,0.9l0,0C-2946.1-4363.9-2946.5-4364.3-2946.5-4364.8
		L-2946.5-4364.8z M-2940.5-4364.8c0-0.5,0.4-0.9,0.9-0.9l0,0l0,0c0.5,0,0.9,0.4,0.9,0.9s-0.4,0.9-0.9,0.9l0,0
		C-2940.1-4363.9-2940.5-4364.3-2940.5-4364.8L-2940.5-4364.8L-2940.5-4364.8z M-2934.5-4364.8c0-0.5,0.4-0.9,0.9-0.9l0,0l0,0
		c0.5,0,0.9,0.4,0.9,0.9s-0.4,0.9-0.9,0.9l0,0C-2934.1-4363.9-2934.5-4364.3-2934.5-4364.8L-2934.5-4364.8z M-2928.5-4364.8
		c0-0.5,0.4-0.9,0.9-0.9l0,0l0,0c0.5,0,0.9,0.4,0.9,0.9s-0.4,0.9-0.9,0.9l0,0C-2928.1-4363.9-2928.5-4364.3-2928.5-4364.8
		L-2928.5-4364.8z M-2922.5-4364.8c0-0.5,0.4-0.9,0.9-0.9l0,0l0,0c0.5,0,0.9,0.4,0.9,0.9s-0.4,0.9-0.9,0.9l0,0
		C-2922.1-4363.9-2922.5-4364.3-2922.5-4364.8L-2922.5-4364.8z M-2916.5-4364.8c0-0.5,0.4-0.9,0.9-0.9l0,0l0,0
		c0.5,0,0.9,0.4,0.9,0.9s-0.4,0.9-0.9,0.9l0,0C-2916.1-4363.9-2916.5-4364.3-2916.5-4364.8L-2916.5-4364.8z M-2910.5-4364.8
		c0-0.5,0.4-0.9,0.9-0.9l0,0l0,0c0.5,0,0.9,0.4,0.9,0.9s-0.4,0.9-0.9,0.9l0,0C-2910.1-4363.9-2910.5-4364.3-2910.5-4364.8
		L-2910.5-4364.8z M-2904.5-4364.8c0-0.5,0.4-0.9,0.9-0.9l0,0l0,0c0.5,0,0.9,0.4,0.9,0.9s-0.4,0.9-0.9,0.9l0,0
		C-2904.1-4363.9-2904.5-4364.3-2904.5-4364.8L-2904.5-4364.8z M-2898.5-4364.8c0-0.5,0.4-0.9,0.9-0.9l0,0l0,0
		c0.5,0,0.9,0.4,0.9,0.9s-0.4,0.9-0.9,0.9l0,0C-2898.1-4363.9-2898.5-4364.3-2898.5-4364.8L-2898.5-4364.8z M-2892.5-4364.8
		c0-0.5,0.4-0.9,0.9-0.9l0,0l0,0c0.5,0,0.9,0.4,0.9,0.9s-0.4,0.9-0.9,0.9l0,0C-2892.1-4363.9-2892.5-4364.3-2892.5-4364.8
		L-2892.5-4364.8z M-2886.5-4364.8c0-0.5,0.4-0.9,0.9-0.9l0,0l0,0c0.5,0,0.9,0.4,0.9,0.9s-0.4,0.9-0.9,0.9l0,0
		C-2886.1-4363.9-2886.5-4364.3-2886.5-4364.8L-2886.5-4364.8z M-2880.5-4364.8c0-0.5,0.4-0.9,0.9-0.9l0,0l0,0
		c0.5,0,0.9,0.4,0.9,0.9s-0.4,0.9-0.9,0.9l0,0C-2880.1-4363.9-2880.5-4364.3-2880.5-4364.8L-2880.5-4364.8z M-2874.5-4364.8
		c0-0.5,0.4-0.9,0.9-0.9l0,0l0,0c0.5,0,0.9,0.4,0.9,0.9s-0.4,0.9-0.9,0.9l0,0C-2874.1-4363.9-2874.5-4364.3-2874.5-4364.8
		L-2874.5-4364.8z M-2868.5-4364.8c0-0.5,0.4-0.9,0.9-0.9l0,0l0,0c0.5,0,0.9,0.4,0.9,0.9s-0.4,0.9-0.9,0.9l0,0
		C-2868.1-4363.9-2868.4-4364.3-2868.5-4364.8L-2868.5-4364.8z M-2862.5-4364.8c0-0.5,0.4-0.9,0.9-0.9l0,0l0,0
		c0.5,0,0.9,0.4,0.9,0.9s-0.4,0.9-0.9,0.9l0,0C-2862-4363.9-2862.4-4364.3-2862.5-4364.8L-2862.5-4364.8z M-2856.5-4364.8
		c0-0.5,0.4-0.9,0.9-0.9l0,0l0,0c0.5,0,0.9,0.4,0.9,0.9s-0.4,0.9-0.9,0.9l0,0C-2856-4363.9-2856.4-4364.3-2856.5-4364.8
		L-2856.5-4364.8z M-2850.4-4364.8c0-0.5,0.4-0.9,0.9-0.9l0,0l0,0c0.5,0,0.9,0.4,0.9,0.9s-0.4,0.9-0.9,0.9l0,0
		C-2850-4363.9-2850.4-4364.3-2850.4-4364.8L-2850.4-4364.8z M-2844.4-4364.8c0-0.5,0.4-0.9,0.9-0.9l0,0l0,0c0.5,0,0.9,0.4,0.9,0.9
		s-0.4,0.9-0.9,0.9l0,0C-2844-4363.9-2844.4-4364.3-2844.4-4364.8L-2844.4-4364.8z M-2838.4-4364.8c0-0.5,0.4-0.9,0.9-0.9l0,0l0,0
		c0.5,0,0.9,0.4,0.9,0.9s-0.4,0.9-0.9,0.9l0,0C-2838-4363.9-2838.4-4364.3-2838.4-4364.8L-2838.4-4364.8z M-2832.4-4364.8
		c0-0.5,0.4-0.9,0.9-0.9l0,0l0,0c0.5,0,0.9,0.4,0.9,0.9s-0.4,0.9-0.9,0.9l0,0C-2832-4363.9-2832.4-4364.3-2832.4-4364.8
		L-2832.4-4364.8L-2832.4-4364.8z M-2826.4-4364.8c0-0.5,0.4-0.9,0.9-0.9l0,0l0,0c0.5,0,0.9,0.4,0.9,0.9s-0.4,0.9-0.9,0.9l0,0
		C-2826-4363.9-2826.4-4364.3-2826.4-4364.8L-2826.4-4364.8z M-2820.4-4364.8c0-0.5,0.4-0.9,0.9-0.9l0,0l0,0c0.5,0,0.9,0.4,0.9,0.9
		s-0.4,0.9-0.9,0.9l0,0C-2820-4363.9-2820.4-4364.3-2820.4-4364.8L-2820.4-4364.8z M-2814.4-4364.8c0-0.5,0.4-0.9,0.9-0.9l0,0l0,0
		c0.5,0,0.9,0.4,0.9,0.9s-0.4,0.9-0.9,0.9l0,0C-2814-4363.9-2814.4-4364.3-2814.4-4364.8L-2814.4-4364.8z M-2808.4-4364.8
		c0-0.5,0.4-0.9,0.9-0.9l0,0l0,0c0.5,0,0.9,0.4,0.9,0.9s-0.4,0.9-0.9,0.9l0,0C-2808-4363.9-2808.4-4364.3-2808.4-4364.8
		L-2808.4-4364.8z M-2802.4-4364.8c0-0.5,0.4-0.9,0.9-0.9l0,0l0,0c0.5,0,0.9,0.4,0.9,0.9s-0.4,0.9-0.9,0.9l0,0
		C-2802-4363.9-2802.4-4364.3-2802.4-4364.8L-2802.4-4364.8z M-2796.4-4364.8c0-0.5,0.4-0.9,0.9-0.9l0,0l0,0c0.5,0,0.9,0.4,0.9,0.9
		s-0.4,0.9-0.9,0.9l0,0C-2796-4363.9-2796.4-4364.3-2796.4-4364.8L-2796.4-4364.8z M-2790.4-4364.8c0-0.5,0.4-0.9,0.9-0.9l0,0l0,0
		c0.5,0,0.9,0.4,0.9,0.9s-0.4,0.9-0.9,0.9l0,0C-2790-4363.9-2790.4-4364.3-2790.4-4364.8L-2790.4-4364.8z M-2784.4-4364.8
		c0-0.5,0.4-0.9,0.9-0.9l0,0l0,0c0.5,0,0.9,0.4,0.9,0.9s-0.4,0.9-0.9,0.9l0,0C-2784-4363.9-2784.4-4364.3-2784.4-4364.8
		L-2784.4-4364.8z M-2778.4-4364.8c0-0.5,0.4-0.9,0.9-0.9l0,0l0,0c0.5,0,0.9,0.4,0.9,0.9s-0.4,0.9-0.9,0.9l0,0
		C-2778-4363.9-2778.4-4364.3-2778.4-4364.8L-2778.4-4364.8z M-2772.4-4364.8c0-0.5,0.4-0.9,0.9-0.9l0,0l0,0c0.5,0,0.9,0.4,0.9,0.9
		s-0.4,0.9-0.9,0.9l0,0C-2772-4363.9-2772.4-4364.3-2772.4-4364.8L-2772.4-4364.8z M-2766.4-4364.8c0-0.5,0.4-0.9,0.9-0.9l0,0l0,0
		c0.5,0,0.9,0.4,0.9,0.9s-0.4,0.9-0.9,0.9l0,0C-2766-4363.9-2766.4-4364.3-2766.4-4364.8L-2766.4-4364.8z M-2760.4-4364.8
		c0-0.5,0.4-0.9,0.9-0.9l0,0l0,0c0.5,0,0.9,0.4,0.9,0.9s-0.4,0.9-0.9,0.9l0,0C-2760-4363.9-2760.3-4364.3-2760.4-4364.8
		L-2760.4-4364.8z M-2754.4-4364.8c0-0.5,0.4-0.9,0.9-0.9l0,0l0,0c0.5,0,0.9,0.4,0.9,0.9s-0.4,0.9-0.9,0.9l0,0
		C-2754-4363.9-2754.3-4364.3-2754.4-4364.8L-2754.4-4364.8z M-2748.4-4364.8c0-0.5,0.4-0.9,0.9-0.9l0,0l0,0c0.5,0,0.9,0.4,0.9,0.9
		s-0.4,0.9-0.9,0.9l0,0C-2747.9-4363.9-2748.3-4364.3-2748.4-4364.8L-2748.4-4364.8z M-2742.4-4364.8c0-0.5,0.4-0.9,0.9-0.9l0,0l0,0
		c0.5,0,0.9,0.4,0.9,0.9s-0.4,0.9-0.9,0.9l0,0C-2741.9-4363.9-2742.3-4364.3-2742.4-4364.8L-2742.4-4364.8z M-2736.3-4364.8
		c0-0.5,0.4-0.9,0.9-0.9l0,0l0,0c0.5,0,0.9,0.4,0.9,0.9s-0.4,0.9-0.9,0.9l0,0C-2735.9-4363.9-2736.3-4364.3-2736.3-4364.8
		L-2736.3-4364.8z M-2730.3-4364.8c0-0.5,0.4-0.9,0.9-0.9l0,0l0,0c0.5,0,0.9,0.4,0.9,0.9s-0.4,0.9-0.9,0.9l0,0
		C-2729.9-4363.9-2730.3-4364.3-2730.3-4364.8L-2730.3-4364.8z M-2724.3-4364.8c0-0.5,0.4-0.9,0.9-0.9l0,0l0,0
		c0.5,0,0.9,0.4,0.9,0.9s-0.4,0.9-0.9,0.9l0,0C-2723.9-4363.9-2724.3-4364.3-2724.3-4364.8L-2724.3-4364.8z M-2718.3-4364.8
		c0-0.5,0.4-0.9,0.9-0.9l0,0l0,0c0.5,0,0.9,0.4,0.9,0.9s-0.4,0.9-0.9,0.9l0,0C-2717.9-4363.9-2718.3-4364.3-2718.3-4364.8
		L-2718.3-4364.8L-2718.3-4364.8z"/>
	<path id="Path_118" class="st2" d="M-2177.2-4697c-0.5,0-0.9-0.4-0.9-0.9l0,0l0,0c0-0.5,0.4-0.9,0.9-0.9s0.9,0.4,0.9,0.9l0,0
		C-2176.3-4697.4-2176.7-4697-2177.2-4697z M-2177.2-4703c-0.5,0-0.9-0.4-0.9-0.9l0,0l0,0c0-0.5,0.4-0.9,0.9-0.9s0.9,0.4,0.9,0.9
		l0,0C-2176.3-4703.4-2176.7-4703-2177.2-4703L-2177.2-4703z M-2177.2-4709c-0.5,0-0.9-0.4-0.9-0.9l0,0l0,0c0-0.5,0.4-0.9,0.9-0.9
		s0.9,0.4,0.9,0.9l0,0C-2176.3-4709.4-2176.7-4709-2177.2-4709z M-2177.2-4715c-0.5,0-0.9-0.4-0.9-0.9l0,0l0,0
		c0-0.5,0.4-0.9,0.9-0.9s0.9,0.4,0.9,0.9l0,0C-2176.3-4715.4-2176.7-4715-2177.2-4715L-2177.2-4715z M-2177.2-4721
		c-0.5,0-0.9-0.4-0.9-0.9l0,0l0,0c0-0.5,0.4-0.9,0.9-0.9s0.9,0.4,0.9,0.9l0,0C-2176.3-4721.5-2176.7-4721.1-2177.2-4721
		L-2177.2-4721z M-2177.2-4727.1c-0.5,0-0.9-0.4-0.9-0.9l0,0l0,0c0-0.5,0.4-0.9,0.9-0.9s0.9,0.4,0.9,0.9l0,0
		C-2176.3-4727.5-2176.7-4727.1-2177.2-4727.1L-2177.2-4727.1z M-2177.2-4733.1c-0.5,0-0.9-0.4-0.9-0.9l0,0l0,0
		c0-0.5,0.4-0.9,0.9-0.9s0.9,0.4,0.9,0.9l0,0C-2176.3-4733.5-2176.7-4733.1-2177.2-4733.1L-2177.2-4733.1z M-2177.2-4739.1
		c-0.5,0-0.9-0.4-0.9-0.9l0,0l0,0c0-0.5,0.4-0.9,0.9-0.9s0.9,0.4,0.9,0.9l0,0C-2176.3-4739.5-2176.7-4739.1-2177.2-4739.1
		L-2177.2-4739.1z M-2177.2-4745.1c-0.5,0-0.9-0.4-0.9-0.9l0,0l0,0c0-0.5,0.4-0.9,0.9-0.9s0.9,0.4,0.9,0.9l0,0
		C-2176.3-4745.5-2176.7-4745.1-2177.2-4745.1L-2177.2-4745.1z M-2177.2-4751.1c-0.5,0-0.9-0.4-0.9-0.9l0,0l0,0
		c0-0.5,0.4-0.9,0.9-0.9s0.9,0.4,0.9,0.9l0,0C-2176.3-4751.5-2176.7-4751.1-2177.2-4751.1L-2177.2-4751.1z M-2177.2-4757.1
		c-0.5,0-0.9-0.4-0.9-0.9l0,0l0,0c0-0.5,0.4-0.9,0.9-0.9s0.9,0.4,0.9,0.9l0,0C-2176.3-4757.5-2176.7-4757.1-2177.2-4757.1
		L-2177.2-4757.1z"/>
	<path id="Path_263" class="st1" d="M-2134.3-4390.4c-0.5,0-0.9-0.4-0.9-0.9l0,0l0,0c0-0.5,0.4-0.9,0.9-0.9s0.9,0.4,0.9,0.9l0,0
		C-2133.4-4390.8-2133.8-4390.4-2134.3-4390.4L-2134.3-4390.4z M-2134.3-4396.4c-0.5,0-0.9-0.4-0.9-0.9l0,0l0,0
		c0-0.5,0.4-0.9,0.9-0.9s0.9,0.4,0.9,0.9l0,0C-2133.5-4396.8-2133.9-4396.4-2134.3-4396.4L-2134.3-4396.4z M-2134.3-4402.4
		c-0.5,0-0.9-0.4-0.9-0.9l0,0l0,0c0-0.5,0.4-0.9,0.9-0.9s0.9,0.4,0.9,0.9l0,0C-2133.4-4402.8-2133.9-4402.4-2134.3-4402.4z
		 M-2134.3-4408.4c-0.5,0-0.9-0.4-0.9-0.9l0,0l0,0c0-0.5,0.4-0.9,0.9-0.9s0.9,0.4,0.9,0.9l0,0
		C-2133.5-4408.8-2133.9-4408.4-2134.3-4408.4L-2134.3-4408.4z M-2134.3-4414.4c-0.5,0-0.9-0.4-0.9-0.9l0,0l0,0
		c0-0.5,0.4-0.9,0.9-0.9s0.9,0.4,0.9,0.9l0,0C-2133.5-4414.8-2133.9-4414.4-2134.3-4414.4L-2134.3-4414.4z M-2134.3-4420.4
		c-0.5,0-0.9-0.4-0.9-0.9l0,0l0,0c0-0.5,0.4-0.9,0.9-0.9s0.9,0.4,0.9,0.9l0,0C-2133.5-4420.8-2133.9-4420.4-2134.3-4420.4
		L-2134.3-4420.4z M-2134.3-4426.4c-0.5,0-0.9-0.4-0.9-0.9l0,0l0,0c0-0.5,0.4-0.9,0.9-0.9s0.9,0.4,0.9,0.9l0,0
		C-2133.5-4426.8-2133.9-4426.4-2134.3-4426.4L-2134.3-4426.4z M-2134.3-4432.4c-0.5,0-0.9-0.4-0.9-0.9l0,0l0,0
		c0-0.5,0.4-0.9,0.9-0.9s0.9,0.4,0.9,0.9l0,0C-2133.5-4432.8-2133.9-4432.4-2134.3-4432.4L-2134.3-4432.4z M-2134.3-4438.4
		c-0.5,0-0.9-0.4-0.9-0.9l0,0l0,0c0-0.5,0.4-0.9,0.9-0.9s0.9,0.4,0.9,0.9l0,0C-2133.5-4438.8-2133.9-4438.4-2134.3-4438.4
		L-2134.3-4438.4z M-2134.3-4444.4c-0.5,0-0.9-0.4-0.9-0.9l0,0l0,0c0-0.5,0.4-0.9,0.9-0.9s0.9,0.4,0.9,0.9l0,0
		C-2133.5-4444.8-2133.9-4444.4-2134.3-4444.4L-2134.3-4444.4z M-2134.3-4450.4c-0.5,0-0.9-0.4-0.9-0.9l0,0l0,0
		c0-0.5,0.4-0.9,0.9-0.9s0.9,0.4,0.9,0.9l0,0C-2133.5-4450.8-2133.9-4450.4-2134.3-4450.4L-2134.3-4450.4z M-2134.3-4456.4
		c-0.5,0-0.9-0.4-0.9-0.9l0,0l0,0c0-0.5,0.4-0.9,0.9-0.9s0.9,0.4,0.9,0.9l0,0C-2133.5-4456.8-2133.9-4456.4-2134.3-4456.4
		L-2134.3-4456.4z M-2134.3-4462.4c-0.5,0-0.9-0.4-0.9-0.9l0,0l0,0c0-0.5,0.4-0.9,0.9-0.9s0.9,0.4,0.9,0.9l0,0
		C-2133.5-4462.8-2133.9-4462.4-2134.3-4462.4L-2134.3-4462.4z M-2134.3-4468.4c-0.5,0-0.9-0.4-0.9-0.9l0,0l0,0
		c0-0.5,0.4-0.9,0.9-0.9s0.9,0.4,0.9,0.9l0,0C-2133.5-4468.8-2133.9-4468.4-2134.3-4468.4L-2134.3-4468.4z M-2134.3-4474.4
		c-0.5,0-0.9-0.4-0.9-0.9l0,0l0,0c0-0.5,0.4-0.9,0.9-0.9s0.9,0.4,0.9,0.9l0,0C-2133.5-4474.8-2133.9-4474.4-2134.3-4474.4
		L-2134.3-4474.4z M-2134.3-4480.4c-0.5,0-0.9-0.4-0.9-0.9l0,0l0,0c0-0.5,0.4-0.9,0.9-0.9s0.9,0.4,0.9,0.9l0,0
		C-2133.5-4480.8-2133.9-4480.4-2134.3-4480.4L-2134.3-4480.4z M-2134.3-4486.4c-0.5,0-0.9-0.4-0.9-0.9l0,0l0,0
		c0-0.5,0.4-0.9,0.9-0.9s0.9,0.4,0.9,0.9l0,0C-2133.5-4486.8-2133.9-4486.4-2134.3-4486.4L-2134.3-4486.4z M-2134.3-4492.4
		c-0.5,0-0.9-0.4-0.9-0.9l0,0l0,0c0-0.5,0.4-0.9,0.9-0.9s0.9,0.4,0.9,0.9l0,0C-2133.5-4492.8-2133.9-4492.4-2134.3-4492.4
		L-2134.3-4492.4z M-2134.3-4498.4c-0.5,0-0.9-0.4-0.9-0.9l0,0l0,0c0-0.5,0.4-0.9,0.9-0.9s0.9,0.4,0.9,0.9l0,0
		C-2133.5-4498.8-2133.9-4498.5-2134.3-4498.4L-2134.3-4498.4z M-2134.3-4504.4c-0.5,0-0.9-0.4-0.9-0.9l0,0l0,0
		c0-0.5,0.4-0.9,0.9-0.9s0.9,0.4,0.9,0.9l0,0C-2133.4-4504.9-2133.9-4504.5-2134.3-4504.4L-2134.3-4504.4z"/>
	<g id="Group_154" transform="translate(-2837.606 -4635.577)">
		<path id="Path_219" class="st0" d="M470,238.8h-1.6V88.1l-57,17.3v13.9h-1.6v-15.1l0.6-0.2L470,85.9V238.8z"/>
		<path id="Path_220" class="st0" d="M328.2,256.3h-1.6V126.8h123.7v103.7h-1.6V128.3H328.2V256.3z"/>
		<path id="Line_257" class="st0" d="M394.8,245.3h-1.6V127.5h1.6V245.3z"/>
		<path id="Rectangle_212" class="st0" d="M322.2,118.5h132.5v9.8H322.2V118.5z M453.1,120H323.8v6.7h129.3V120z"/>
		<path id="Path_221" class="st0" d="M369.5,256.2h-1.6v-16.3c0-3-2.4-5.4-5.4-5.4s-5.4,2.4-5.4,5.4v16.3h-1.6v-16.3
			c0-3.9,3-7,6.9-7.1c3.9,0,7,3,7.1,6.9c0,0.1,0,0.1,0,0.2V256.2z"/>
		<path id="Rectangle_213" class="st0" d="M348.3,134.7c4.7,0,8.4,3.8,8.4,8.5v15.6h-16.9v-15.6
			C339.9,138.5,343.6,134.7,348.3,134.7z M355.2,157.2v-14c0.1-3.8-2.9-7-6.7-7.1c-3.8-0.1-7,2.9-7.1,6.7c0,0.1,0,0.3,0,0.4v14
			H355.2z"/>
		<path id="Path_222" class="st0" d="M428,256.2h-1.6v-16.3c0-3-2.4-5.4-5.4-5.4s-5.4,2.4-5.4,5.4v16.3H414v-16.3c0-3.9,3-7,6.9-7.1
			c3.9,0,7,3,7.1,6.9c0,0.1,0,0.1,0,0.2C428,239.9,428,256.2,428,256.2z"/>
		<g id="Group_149" transform="translate(3895.716 5625.393)">
			<path id="Line_258" class="st0" d="M-3552.7-5364.7h-1.6l0.1-25.1h1.6L-3552.7-5364.7z"/>
			<path id="Path_223" class="st0" d="M-3553.4-5396.4L-3553.4-5396.4c0.1,0,0.2,0,0.4,0c2.7,0.2,4.7,2.6,4.5,5.2
				c0,0.2,0,0.3-0.1,0.5c-0.2,1.1,0.1,2.2,0.7,3c2.2,3.1,1.4,7.3-1.7,9.5c-1.1,0.8-2.5,1.2-3.9,1.2c-0.1,0-0.2,0-0.4,0
				c-3.5-0.2-6.3-3.1-6.4-6.6c0-1.5,0.4-3,1.3-4.2c0.6-0.9,0.9-1.9,0.7-3c0-0.3-0.1-0.5-0.1-0.8
				C-3558.2-5394.2-3556.1-5396.3-3553.4-5396.4z M-3553.4-5378.4c2.9,0,5.2-2.3,5.3-5.2c0-1.1-0.3-2.1-0.9-3
				c-0.9-1.2-1.2-2.7-1-4.2c0-0.3,0.1-0.5,0-0.8c-0.1-1.7-1.4-3-3.1-3.1c-0.1,0-0.2,0-0.3,0c-1.8,0-3.3,1.5-3.3,3.3
				c0,0.2,0,0.4,0,0.5c0.2,1.5-0.1,2.9-1,4.1c-0.7,0.9-1.1,2.1-1,3.3c0.1,2.7,2.2,4.9,5,5.1
				C-3553.6-5378.4-3553.5-5378.4-3553.4-5378.4L-3553.4-5378.4z"/>
			<path id="Path_224" class="st3" d="M-3556.5-5385.2c0.3,0.5,3.1,4.8,3.1,4.8"/>
			<path id="Path_224_-_Outline" class="st0" d="M-3554.1-5380.1c-0.1-0.2-2.8-4.3-3.1-4.8l1.3-0.8c0.2,0.4,2.1,3.3,3,4.7
				L-3554.1-5380.1z"/>
		</g>
		<g id="Group_150" transform="translate(3861.015 5607.325)">
			<path id="Line_259" class="st0" d="M-3549.7-5365l-0.3-25.1h1.6l0.3,25.1H-3549.7z"/>
			<path id="Path_225" class="st3" d="M-3552.3-5385.6c0.3,0.5,3.1,4.7,3.1,4.7"/>
			<path id="Path_225_-_Outline" class="st0" d="M-3549.8-5380.4c-0.1-0.2-2.8-4.2-3.2-4.7l1.3-0.8c0.3,0.4,2.2,3.2,3.1,4.7
				L-3549.8-5380.4z"/>
			<path id="Path_226" class="st0" d="M-3548.9-5396.4c2.8,0,4.8,1,6,3.1c0.8,1.7,1.2,3.4,1.2,5.3c0,0.6,0.1,1.2,0.3,1.8
				c1.3,2.8,1.4,5.3,0.4,7.3c-0.8,1.5-2,2.6-3.5,3.4c-1.7,0.9-3.6,1.6-5.6,2c-0.5,0.1-1,0.2-1.5,0.2c-2.2,0-4.1-1.1-5.7-3.4
				c-1.3-2.1-2.3-4.4-2.7-6.8c-0.6-2.7-0.1-5.6,1.4-8c1.4-2.3,3.8-3.9,6.4-4.5C-3551.1-5396.2-3550-5396.3-3548.9-5396.4z
				 M-3551.5-5374.8c0.4,0,0.8,0,1.2-0.1c4.3-0.9,6.9-2.5,8-4.6c0.8-1.6,0.6-3.6-0.4-6c-0.3-0.8-0.4-1.6-0.4-2.4
				c0-1.6-0.4-3.2-1-4.6c-0.9-1.5-2.4-2.3-4.6-2.3c-1,0-2,0.1-3,0.4c-2.2,0.5-4.2,1.8-5.4,3.8c-1.3,2-1.7,4.5-1.2,6.8
				c0.5,2.2,1.3,4.4,2.5,6.3C-3555-5375.9-3553.4-5374.9-3551.5-5374.8L-3551.5-5374.8z"/>
		</g>
		<g id="Group_151" transform="translate(4003.919 5634.353)">
			<path id="Path_227" class="st0" d="M-3554.4-5396.3L-3554.4-5396.3c0.1,0,0.2,0,0.3,0c2.1,0.2,3.8,2.2,3.9,4.7
				c0,0.4,0,0.8-0.1,1.1c-0.1,1.1,0.1,2.2,0.6,3.2c0.7,1.2,1,2.6,1,3.9c0,1.8-0.6,3.5-1.7,4.8c-1,1.3-2.5,2-4.2,2.1
				c-0.1,0-0.2,0-0.3,0c-1.5-0.1-3-0.9-3.9-2.1c-1-1.3-1.6-2.9-1.6-4.6c0-1.5,0.3-3,1.1-4.2c0.5-0.9,0.7-2,0.6-3.1
				c0-0.3,0-0.5,0-0.8c0-1.2,0.4-2.5,1.2-3.4C-3556.7-5395.8-3555.5-5396.3-3554.4-5396.3z M-3554.4-5378.1c2.3,0,4.3-2.4,4.3-5.3
				c0-1.1-0.3-2.2-0.8-3.2c-0.7-1.3-1-2.7-0.8-4.2c0-0.3,0.1-0.6,0-0.8c-0.1-1.7-1.2-3.1-2.5-3.2c-0.1,0-0.1,0-0.2,0
				c-1.5,0-2.7,1.5-2.7,3.4c0,0.2,0,0.4,0,0.6c0.2,1.4-0.1,2.9-0.8,4.1c-0.6,1-0.9,2.2-0.9,3.4c0.1,2.8,1.8,5.1,4,5.2
				C-3554.6-5378.1-3554.5-5378.1-3554.4-5378.1L-3554.4-5378.1z"/>
			<path id="Line_260" class="st0" d="M-3553.7-5370.1h-1.6l0.1-21.4h1.6L-3553.7-5370.1z"/>
			<path id="Line_261" class="st0" d="M-3553.9-5382l-1.1-1.1l2.4-2.4l1.1,1.1L-3553.9-5382z"/>
			<path id="Path_228" class="st3" d="M-3556.7-5381.7c0.7,0.7,1.4,1.4,2.2,2"/>
			<path id="Path_228_-_Outline" class="st0" d="M-3554.9-5379.1c-0.9-0.7-1.7-1.4-2.4-2.2l1.3-0.8l0,0c0.6,0.7,1.3,1.3,2.1,1.8
				L-3554.9-5379.1z"/>
		</g>
		<path id="Rectangle_214" class="st0" d="M339.8,157.2h41.7v7.3h-41.7V157.2z M380,158.7h-38.6v4.2H380
			C380,162.9,380,158.7,380,158.7z"/>
		<path id="Rectangle_215" class="st0" d="M363.5,137.9h13.2v9.6h-13.2V137.9z M375.2,139.4h-10.1v6.5h10.1V139.4z"/>
		<path id="Line_262" class="st0" d="M382.3,151.8h-45v-1.6h45V151.8z"/>
		<path id="Line_263" class="st0" d="M378.7,157.9h-1.6V151h1.6V157.9z"/>
		<path id="Line_264" class="st0" d="M371.8,157.9h-1.6V151h1.6V157.9z"/>
		<path id="Line_265" class="st0" d="M364.3,157.9h-1.6V151h1.6V157.9z"/>
		<path id="Line_266" class="st0" d="M349.1,157.9h-1.6V151h1.6V157.9z"/>
		<path id="Rectangle_216" class="st0" d="M363.9,176.5c4.7,0,8.4,3.8,8.4,8.5v15.6h-16.9V185C355.4,180.3,359.2,176.6,363.9,176.5z
			 M370.8,199v-14c0.1-3.8-2.9-7-6.7-7.1c-3.8-0.1-7,2.9-7.1,6.7c0,0.1,0,0.3,0,0.4v14H370.8z"/>
		<path id="Rectangle_217" class="st0" d="M339.8,199h41.7v7.3h-41.7V199z M380,200.6h-38.6v4.2H380C380,204.8,380,200.6,380,200.6z
			"/>
		<path id="Line_267" class="st0" d="M382.3,193.7h-42.5v-1.6h42.5V193.7z"/>
		<path id="Line_268" class="st0" d="M378.7,199.8h-1.6v-6.9h1.6V199.8z"/>
		<path id="Line_269" class="st0" d="M353,199.8h-1.6v-6.9h1.6V199.8z"/>
		<path id="Line_270" class="st0" d="M366.2,199.8h-1.6v-6.9h1.6V199.8z"/>
		<path id="Line_271" class="st0" d="M343.6,199.8H342v-6.9h1.6V199.8z"/>
		<path id="Rectangle_218" class="st0" d="M351.9,105.7h9.6V120h-9.6V105.7z M359.9,107.3h-6.5v11.2h6.5V107.3z"/>
		<g id="Group_152" transform="translate(3962.958 5534.125)">
			<path id="Rectangle_219" class="st0" d="M-3560.2-5375.6h36.5v17h-36.5V-5375.6z M-3525.2-5374h-33.4v13.9h33.4V-5374z"/>
			<path id="Rectangle_220" class="st0" d="M-3560.2-5396.4h36.5v17h-36.5V-5396.4z M-3525.2-5394.8h-33.4v13.9h33.4V-5394.8z"/>
			
				<linearGradient id="Rectangle_221_1_" gradientUnits="userSpaceOnUse" x1="-10055.8877" y1="2219.4766" x2="-10054.1738" y2="2217.4707" gradientTransform="matrix(27.387 0 0 8.268 271845.5313 -23733.8672)">
				<stop  offset="0" style="stop-color:#FFCF00"/>
				<stop  offset="1" style="stop-color:#FFF1B2;stop-opacity:0.149"/>
			</linearGradient>
			<rect id="Rectangle_221" x="-3555.6" y="-5392" class="st4" width="27.4" height="8.3"/>
			
				<linearGradient id="Rectangle_222_1_" gradientUnits="userSpaceOnUse" x1="-10055.8867" y1="2219.478" x2="-10054.1719" y2="2217.4722" gradientTransform="matrix(27.387 0 0 8.268 271845.5313 -23713.0938)">
				<stop  offset="0" style="stop-color:#FFCF00"/>
				<stop  offset="1" style="stop-color:#FFF1B2;stop-opacity:0.18"/>
			</linearGradient>
			<rect id="Rectangle_222" x="-3555.6" y="-5371.2" class="st5" width="27.4" height="8.3"/>
		</g>
		<g id="Group_153" transform="translate(3962.958 5577.869)">
			<path id="Rectangle_223" class="st0" d="M-3560.2-5375.6h36.5v17h-36.5V-5375.6z M-3525.2-5374h-33.4v13.9h33.4V-5374z"/>
			<path id="Rectangle_224" class="st0" d="M-3560.2-5396.4h36.5v17h-36.5V-5396.4z M-3525.2-5394.8h-33.4v13.9h33.4V-5394.8z"/>
		</g>
	</g>
	<g id="Group_164" transform="translate(-163 -43.3)">
		<path id="Ellipse_39" class="st0" d="M-2107.3-4396.4c4.8,0,8.7,3.9,8.7,8.7c0,4.8-3.9,8.7-8.7,8.7s-8.7-3.9-8.7-8.7
			C-2116.1-4392.5-2112.2-4396.4-2107.3-4396.4z M-2107.3-4380.4c4,0,7.2-3.2,7.2-7.2s-3.2-7.2-7.2-7.2s-7.2,3.2-7.2,7.2l0,0
			C-2114.5-4383.7-2111.3-4380.4-2107.3-4380.4z"/>
		<path id="Ellipse_40" class="st0" d="M-2134.3-4396.4c4.8,0,8.7,3.9,8.7,8.7c0,4.8-3.9,8.7-8.7,8.7s-8.7-3.9-8.7-8.7
			C-2143.1-4392.5-2139.2-4396.4-2134.3-4396.4z M-2134.3-4380.4c4,0,7.2-3.2,7.2-7.2s-3.2-7.2-7.2-7.2s-7.2,3.2-7.2,7.2l0,0
			C-2141.5-4383.7-2138.3-4380.4-2134.3-4380.4z"/>
		<path id="Ellipse_41" class="st0" d="M-2107.3-4389.8c1.2,0,2.2,1,2.2,2.2s-1,2.2-2.2,2.2s-2.2-1-2.2-2.2
			S-2108.5-4389.8-2107.3-4389.8z M-2107.3-4387c0.4,0,0.6-0.3,0.6-0.6c0-0.4-0.3-0.6-0.6-0.6s-0.6,0.3-0.6,0.6
			C-2108-4387.3-2107.7-4387-2107.3-4387z"/>
		<path id="Ellipse_42" class="st0" d="M-2134.6-4389.8c1.2,0,2.2,1,2.2,2.2s-1,2.2-2.2,2.2s-2.2-1-2.2-2.2
			S-2135.8-4389.8-2134.6-4389.8z M-2134.6-4387c0.4,0,0.6-0.3,0.6-0.6c0-0.4-0.3-0.6-0.6-0.6s-0.6,0.3-0.6,0.6
			C-2135.2-4387.3-2135-4387-2134.6-4387z"/>
		<path id="Ellipse_43" class="st0" d="M-2120.9-4390.6c1.6,0,3,1.3,3,3c0,1.6-1.3,3-3,3c-1.6,0-3-1.3-3-3l0,0
			C-2123.9-4389.3-2122.6-4390.6-2120.9-4390.6z M-2120.9-4386.2c0.8,0,1.4-0.6,1.4-1.4s-0.6-1.4-1.4-1.4c-0.8,0-1.4,0.6-1.4,1.4
			l0,0C-2122.3-4386.9-2121.7-4386.2-2120.9-4386.2z"/>
		<path id="Line_298" class="st0" d="M-2108.8-4386.9h-10v-1.6h10V-4386.9z"/>
		<path id="Path_238" class="st0" d="M-2108.5-4388.4c-0.2-0.1-0.4-0.2-4.2-5.3c-1.4-1.9-2.9-3.8-3.4-4.6h-13l-4.1,9.5l-1.4-0.6
			l4.6-10.4h14.8l0.2,0.3c2.6,3.5,6.9,9.3,7.4,9.8l-0.1-0.1L-2108.5-4388.4z"/>
		<path id="Line_299" class="st0" d="M-2119.4-4389.5l-1.4-0.7l6.4-13.5l1.4,0.7L-2119.4-4389.5z"/>
		<path id="Path_239" class="st0" d="M-2122.8-4389l-7.8-9.9l2-3.7h-3.1c-0.5,0-0.9,0.2-1.2,0.6c-0.4,0.6-0.4,1.4,0,1.9l0.5,0.6
			l-1.2,1l-0.5-0.6c-0.9-1.1-0.9-2.7-0.1-3.9c0.6-0.8,1.5-1.2,2.5-1.2h5.7l-2.8,5.1l7.1,9.1L-2122.8-4389z"/>
		<path id="Line_300" class="st0" d="M-2110.1-4402.6h-7.2v-1.6h7.2V-4402.6z"/>
	</g>
	<g id="Group_171" transform="translate(-2976.155 -4641.866)">
		<path id="Path_240" class="st0" d="M1045.2,185.9H1013l-0.2-0.1l-72.5-36.9h32.2l0.2,0.1L1045.2,185.9z M1013.3,184.4h25.3
			L972,150.5h-25.3L1013.3,184.4z"/>
		<path id="Line_301" class="st0" d="M872.5,185.9l-0.7-1.4l70.3-35.7l0.7,1.4L872.5,185.9z"/>
		<path id="Line_302" class="st0" d="M1007,272h-1.6v-71.2h1.6V272z"/>
		<path id="Line_303" class="st0" d="M884.4,258.3h-1.6v-66.1h1.6V258.3z"/>
		<path id="Line_304" class="st0" d="M1033.3,257.5h-1.6v-65.3h1.6V257.5z"/>
		<g id="Group_166" transform="translate(4476.717 5572.187)">
			<path id="Rectangle_237" class="st0" d="M-3560.2-5396.4h54.4v32.8h-54.4V-5396.4z M-3507.3-5394.8h-51.3v29.7h51.3V-5394.8z"/>
			<g id="Group_165" transform="translate(5.211 5.396)">
				
					<linearGradient id="Rectangle_238_1_" gradientUnits="userSpaceOnUse" x1="-10784.7275" y1="2403.0889" x2="-10787.5605" y2="2401.5796" gradientTransform="matrix(42.474 0 0 20.458 454587.125 -54533.6992)">
					<stop  offset="0" style="stop-color:#FFCF00"/>
					<stop  offset="1" style="stop-color:#FFFFFF;stop-opacity:4.300000e-02"/>
				</linearGradient>
				<rect id="Rectangle_238" x="-3559.4" y="-5395.6" class="st6" width="42.5" height="20.5"/>
				<line id="Line_305" class="st7" x1="-3523.8" y1="-5385.3" x2="-3552.6" y2="-5385.3"/>
			</g>
		</g>
		<g id="Group_170" transform="translate(4499.821 5628.667)">
			<path id="Rectangle_239" class="st0" d="M-3546.7-5396.4h23.7v24.1h-23.7V-5396.4z M-3524.6-5394.8h-20.6v21h20.6V-5394.8z"/>
			
				<linearGradient id="Rectangle_240_1_" gradientUnits="userSpaceOnUse" x1="-10933.9336" y1="2341.4424" x2="-10934.4277" y2="2339.4263" gradientTransform="matrix(13.936 0 0 13.655 148843.9688 -37342.4766)">
				<stop  offset="0" style="stop-color:#FFCF00"/>
				<stop  offset="1" style="stop-color:#FFF1B2;stop-opacity:0"/>
			</linearGradient>
			<rect id="Rectangle_240" x="-3541.8" y="-5391.1" class="st8" width="13.9" height="13.7"/>
			<g id="Group_168" transform="translate(35.556)">
				<path id="Path_242" class="st0" d="M-3545.2-5372.3h-14.3v-1.6h12.7v-21h-12.6v-1.6h14.1L-3545.2-5372.3z"/>
				<g id="Group_167" transform="translate(3.641 3.741)">
					<path id="Line_306" class="st0" d="M-3552.9-5394.8h-6.5v-1.6h6.5V-5394.8z"/>
					<path id="Line_307" class="st0" d="M-3552.9-5391.8h-6.5v-1.6h6.5V-5391.8z"/>
					<path id="Line_308" class="st0" d="M-3552.9-5388.8h-6.5v-1.6h6.5V-5388.8z"/>
					<path id="Line_309" class="st0" d="M-3552.9-5385.8h-6.5v-1.6h6.5V-5385.8z"/>
					<path id="Line_310" class="st0" d="M-3552.9-5382.7h-6.5v-1.6h6.5V-5382.7z"/>
					<path id="Line_311" class="st0" d="M-3552.9-5379.7h-6.5v-1.6h6.5V-5379.7z"/>
				</g>
			</g>
			<path id="Path_243" class="st0" d="M-3546-5372.3h-14.3v-24.1h14.1v1.6h-12.6v21h12.7L-3546-5372.3z"/>
			<g id="Group_169" transform="translate(3.343 3.741)">
				<path id="Line_312" class="st0" d="M-3552.9-5394.8h-6.5v-1.6h6.5V-5394.8z"/>
				<path id="Line_313" class="st0" d="M-3552.9-5391.8h-6.5v-1.6h6.5V-5391.8z"/>
				<path id="Line_314" class="st0" d="M-3552.9-5388.8h-6.5v-1.6h6.5V-5388.8z"/>
				<path id="Line_315" class="st0" d="M-3552.9-5385.8h-6.5v-1.6h6.5V-5385.8z"/>
				<path id="Line_316" class="st0" d="M-3552.9-5382.7h-6.5v-1.6h6.5V-5382.7z"/>
				<path id="Line_317" class="st0" d="M-3552.9-5379.7h-6.5v-1.6h6.5V-5379.7z"/>
			</g>
		</g>
		<path id="Path_244" class="st0" d="M925.4,266.9h-1.6v-32.1h-18.1v32.1h-1.6v-33.7h21.2L925.4,266.9L925.4,266.9z"/>
	</g>
	<g id="Group_174" transform="translate(-3245.809 -4758.922)">
		<path id="Path_246" class="st0" d="M1577.4,345.4H1549l0.2-0.9L1561,275c0.2-1.2,1.4-2.1,2.6-1.8c0.9,0.2,1.7,0.9,1.8,1.8
			L1577.4,345.4z M1550.8,343.9h24.7l-11.7-68.6c-0.1-0.4-0.4-0.6-0.8-0.6c-0.3,0.1-0.5,0.3-0.6,0.6L1550.8,343.9z"/>
		<path id="Line_318" class="st0" d="M1563.9,372.5h-1.6v-41.4h1.6V372.5z"/>
		<path id="Path_247" class="st0" d="M1589.1,259h-19.9l8.2-48c0.2-1,1.1-1.6,2.1-1.4c0.7,0.1,1.3,0.7,1.4,1.4L1589.1,259z
			 M1571.1,257.5h16.2l-7.9-46.2c0-0.1-0.1-0.2-0.3-0.2c-0.1,0-0.2,0.1-0.2,0.2L1571.1,257.5z"/>
		<path id="Line_319" class="st0" d="M1579.9,268.9h-1.6v-19.7h1.6V268.9z"/>
		<path id="Path_248" class="st0" d="M1347.7,298.4h-1.6V245l0.7-0.1l196.3-18.3v68.1h-1.6v-66.4l-193.8,18.1V298.4z"/>
		<path id="Rectangle_241" class="st0" d="M1382.2,270.1c4.2,0,7.6,3.4,7.6,7.6v18.9h-15.2v-18.9
			C1374.6,273.5,1378,270.1,1382.2,270.1z M1388.2,295.1v-17.4c0-3.3-2.7-6-6.1-6.1l0,0c-3.3,0-6,2.7-6.1,6.1v17.4H1388.2z"/>
		<path id="Rectangle_242" class="st0" d="M1487.6,247.1h23.3c8.3,0,15.1,6.8,15.1,15.1v15.5h-53.4v-15.5
			C1472.5,253.8,1479.3,247.1,1487.6,247.1L1487.6,247.1z M1524.4,276.2v-14c0-7.5-6.1-13.5-13.5-13.5h-23.3
			c-7.5,0-13.5,6.1-13.5,13.5v14H1524.4z"/>
		<g id="Group_172">
			<path id="Line_320" class="st0" d="M1451.5,305.8l-0.3-25.2h1.6l0.3,25.2H1451.5z"/>
			<path id="Path_249" class="st3" d="M1449,285.2c0.3,0.5,3.2,4.7,3.2,4.7"/>
			<path id="Path_249_-_Outline" class="st0" d="M1451.5,290.4c-0.1-0.2-2.8-4.2-3.2-4.8l1.3-0.8c0.3,0.4,2.2,3.3,3.1,4.7
				L1451.5,290.4z"/>
			<path id="Path_250" class="st0" d="M1452.4,274.4c2.8,0,4.8,1,6,3.1c0.8,1.7,1.2,3.5,1.2,5.3c0,0.6,0.1,1.2,0.3,1.9
				c1.3,2.8,1.4,5.3,0.4,7.3c-0.8,1.5-2,2.7-3.5,3.4c-1.8,0.9-3.6,1.6-5.6,2c-0.5,0.1-1,0.2-1.5,0.2c-2.2,0-4.1-1.1-5.7-3.4
				c-1.3-2.1-2.3-4.4-2.8-6.9c-0.6-2.8-0.1-5.7,1.4-8c1.4-2.3,3.8-3.9,6.4-4.5C1450.1,274.5,1451.2,274.4,1452.4,274.4z M1449.7,296
				c0.4,0,0.8,0,1.2-0.1c4.3-1,7-2.5,8-4.6c0.8-1.6,0.6-3.6-0.4-6c-0.3-0.8-0.4-1.6-0.4-2.4c0-1.6-0.4-3.2-1-4.7
				c-0.9-1.6-2.4-2.3-4.6-2.3c-1,0-2,0.1-3,0.4c-2.3,0.5-4.2,1.9-5.4,3.8c-1.3,2-1.7,4.5-1.2,6.9c0.5,2.2,1.3,4.4,2.5,6.3
				C1446.2,294.9,1447.8,295.9,1449.7,296z"/>
		</g>
		<g id="Group_173">
			<path id="Line_321" class="st0" d="M1423,313.1h-1.6l0.5-43.5h1.6L1423,313.1z"/>
			<path id="Path_251" class="st3" d="M1427.1,276.1c-0.5,0.8-4.5,6.8-4.5,6.8"/>
			<path id="Path_251_-_Outline" class="st0" d="M1423.2,283.4l-1.3-0.9c0-0.1,4.1-6.1,4.5-6.8l1.3,0.8
				C1427.3,277.3,1423.4,283.1,1423.2,283.4z"/>
			<path id="Path_252" class="st0" d="M1422.2,260.9L1422.2,260.9c1.6,0,3.2,0.2,4.7,0.5c3.7,0.8,7,3.1,9,6.3
				c2.1,3.4,2.8,7.4,1.9,11.3c-0.7,3.5-2,6.8-3.9,9.8c-2.1,3.1-4.8,4.7-7.9,4.7c-0.7,0-1.4-0.1-2.1-0.2c-2.8-0.6-5.4-1.5-7.9-2.8
				c-2.1-1.1-3.8-2.7-4.9-4.8c-1.4-2.8-1.2-6.3,0.6-10.2c0.3-0.9,0.4-1.8,0.4-2.8c0.2-2.3,0.4-5.1,1.7-7.5
				C1415.4,262.4,1418.2,260.9,1422.2,260.9z M1426,292c2.6,0,4.8-1.4,6.6-4.1c1.8-2.8,3-6,3.7-9.2c0.8-3.5,0.2-7.1-1.7-10.1
				c-1.8-2.9-4.7-4.9-8.1-5.6c-1.4-0.3-2.9-0.5-4.4-0.5c-3.4,0-5.7,1.1-7,3.5c-1.1,2.1-1.4,4.7-1.5,6.9c0,1.1-0.2,2.2-0.6,3.3
				c-0.8,1.6-1.2,3.3-1.4,5c-0.1,1.3,0.2,2.7,0.7,3.9c1.5,3.1,5.5,5.4,11.7,6.8C1424.8,291.9,1425.4,292,1426,292L1426,292z"/>
		</g>
		<path id="Path_253" class="st0" d="M1518.8,304.3h-1.6v-5.2h-31.5v5.2h-1.6v-6.8h34.6L1518.8,304.3z"/>
		<path id="Path_254" class="st0" d="M1516.5,298.7h-1.6v-7.4H1488v7.4h-1.6v-8.9h30L1516.5,298.7z"/>
		<path id="Line_322" class="st0" d="M1492.8,298.4h-1.6v-7.2h1.6V298.4z"/>
		<path id="Line_323" class="st0" d="M1511.8,298.4h-1.6v-7.2h1.6V298.4z"/>
		<path id="Line_324" class="st0" d="M1502.3,298.4h-1.6v-7.2h1.6V298.4z"/>
		<path id="Line_325" class="st0" d="M1497.6,298.4h-1.6v-7.2h1.6V298.4z"/>
		<path id="Line_326" class="st0" d="M1507.1,298.4h-1.6v-7.2h1.6V298.4z"/>
		<path id="Line_327" class="st0" d="M1489.8,302.1h-1.6v-3.4h1.6V302.1z"/>
		<path id="Line_328" class="st0" d="M1514.4,302.1h-1.6v-3.4h1.6V302.1z"/>
		<path id="Line_329" class="st0" d="M1334.6,234.4l-0.2-1.5l212.4-22.3l0.2,1.5L1334.6,234.4z"/>
		<path id="Path_256" class="st0" d="M1404.4,309.3h-1.6v-12.7h-42.4v12.7h-1.6V295h45.5L1404.4,309.3z"/>
		<path id="Path_265" class="st0" d="M1404.5,303.4h-45.6v-1.6h45.6V303.4z"/>
		
			<linearGradient id="Rectangle_243_1_" gradientUnits="userSpaceOnUse" x1="-1289.9192" y1="2376.1802" x2="-1289.9192" y2="2377.1802" gradientTransform="matrix(37.631 0 0 16.954 50040.1211 -40031.8594)">
			<stop  offset="0" style="stop-color:#FFCF00"/>
			<stop  offset="1" style="stop-color:#FFF1B2;stop-opacity:4.300000e-02"/>
		</linearGradient>
		<path id="Rectangle_243" class="st9" d="M1489.7,253.9h19c5.1,0,9.3,4.2,9.3,9.3l0,0v7.6l0,0h-37.6l0,0v-7.6
			C1480.4,258.1,1484.6,253.9,1489.7,253.9L1489.7,253.9z"/>
		<path id="Rectangle_244" class="st0" d="M1370.9,254.2h22.5c5.4,0,9.7,4.4,9.7,9.7v0.8h-42v-0.8
			C1361.2,258.6,1365.5,254.2,1370.9,254.2z M1401.6,263.2c-0.4-4.2-3.9-7.4-8.2-7.4h-22.5c-4.2,0-7.7,3.2-8.2,7.4H1401.6z"/>
		<path id="Line_331" class="st0" d="M1367.1,295.8h-1.6v-31.9h1.6V295.8z"/>
		<path id="Line_332" class="st0" d="M1398,295.8h-1.6v-31.9h1.6V295.8z"/>
	</g>
	<g id="Group_176" transform="translate(-2753.567 -4632.817)">
		<path id="Path_258-2" class="st0" d="M158.2,228.3l-12.4-18.1h24.8L158.2,228.3z M148.7,211.7l9.5,14l9.5-14H148.7z"/>
		<path id="Line_333-2" class="st0" d="M178.3,211.7h-40.2v-1.5h40.2V211.7z"/>
		<path id="Line_334-2" class="st0" d="M180.8,208.4h-45.2v-1.5h45.2V208.4z"/>
		<path id="Line_335-2" class="st0" d="M140.9,207.7h-1.5v-4h1.5V207.7z"/>
		<path id="Line_336-2" class="st0" d="M143.4,207.7h-1.5v-4h1.5V207.7z"/>
		<path id="Line_337-2" class="st0" d="M173.7,207.7h-1.5v-4h1.5V207.7z"/>
		<path id="Line_338-2" class="st0" d="M176.2,207.7h-1.5v-4h1.5V207.7z"/>
		<path id="Path_260" class="st1" d="M158.2,263.6c-0.5,0-0.9-0.4-0.9-0.9l0,0l0,0c0-0.5,0.4-0.9,0.9-0.9s0.9,0.4,0.9,0.9l0,0
			C159.1,263.2,158.7,263.6,158.2,263.6z M158.2,257.6c-0.5,0-0.9-0.4-0.9-0.9l0,0l0,0c0-0.5,0.4-0.9,0.9-0.9s0.9,0.4,0.9,0.9l0,0
			C159.1,257.2,158.7,257.6,158.2,257.6L158.2,257.6z M158.2,251.6c-0.5,0-0.9-0.4-0.9-0.9l0,0l0,0c0-0.5,0.4-0.9,0.9-0.9
			s0.9,0.4,0.9,0.9l0,0C159.1,251.2,158.7,251.6,158.2,251.6L158.2,251.6z M158.2,245.6c-0.5,0-0.9-0.4-0.9-0.9l0,0l0,0
			c0-0.5,0.4-0.9,0.9-0.9s0.9,0.4,0.9,0.9l0,0C159.1,245.2,158.7,245.6,158.2,245.6L158.2,245.6z M158.2,239.6
			c-0.5,0-0.9-0.4-0.9-0.9l0,0l0,0c0-0.5,0.4-0.9,0.9-0.9s0.9,0.4,0.9,0.9l0,0C159.1,239.2,158.7,239.6,158.2,239.6L158.2,239.6z
			 M158.2,233.6c-0.5,0-0.9-0.4-0.9-0.9l0,0l0,0c0-0.5,0.4-0.9,0.9-0.9s0.9,0.4,0.9,0.9l0,0C159.1,233.2,158.7,233.6,158.2,233.6
			L158.2,233.6z"/>
	</g>
	<path id="Path_261" class="st1" d="M-2562.4-4424.1c0-0.5,0.4-0.9,0.9-0.9l0,0l0,0c0.5,0,0.9,0.4,0.9,0.9s-0.4,0.9-0.9,0.9l0,0
		C-2562-4423.2-2562.4-4423.6-2562.4-4424.1z M-2556.4-4424.1c0-0.5,0.4-0.9,0.9-0.9l0,0l0,0c0.5,0,0.9,0.4,0.9,0.9
		s-0.4,0.9-0.9,0.9l0,0C-2556-4423.2-2556.4-4423.6-2556.4-4424.1z M-2550.4-4424.1c0-0.5,0.4-0.9,0.9-0.9l0,0l0,0
		c0.5,0,0.9,0.4,0.9,0.9s-0.4,0.9-0.9,0.9l0,0C-2550-4423.2-2550.4-4423.6-2550.4-4424.1z M-2544.4-4424.1c0-0.5,0.4-0.9,0.9-0.9
		l0,0l0,0c0.5,0,0.9,0.4,0.9,0.9s-0.4,0.9-0.9,0.9l0,0C-2544-4423.2-2544.4-4423.6-2544.4-4424.1L-2544.4-4424.1z M-2538.4-4424.1
		c0-0.5,0.4-0.9,0.9-0.9l0,0l0,0c0.5,0,0.9,0.4,0.9,0.9s-0.4,0.9-0.9,0.9l0,0C-2538-4423.2-2538.4-4423.6-2538.4-4424.1
		L-2538.4-4424.1z M-2532.4-4424.1c0-0.5,0.4-0.9,0.9-0.9l0,0l0,0c0.5,0,0.9,0.4,0.9,0.9s-0.4,0.9-0.9,0.9l0,0
		C-2532-4423.2-2532.4-4423.6-2532.4-4424.1L-2532.4-4424.1z M-2526.4-4424.1c0-0.5,0.4-0.9,0.9-0.9l0,0l0,0c0.5,0,0.9,0.4,0.9,0.9
		s-0.4,0.9-0.9,0.9l0,0C-2526-4423.2-2526.4-4423.6-2526.4-4424.1L-2526.4-4424.1z M-2520.4-4424.1c0-0.5,0.4-0.9,0.9-0.9l0,0l0,0
		c0.5,0,0.9,0.4,0.9,0.9s-0.4,0.9-0.9,0.9l0,0C-2520-4423.2-2520.4-4423.6-2520.4-4424.1L-2520.4-4424.1z"/>
	<path id="Path_264" class="st1" d="M-2060.9-4505.4c0-0.5,0.4-0.9,0.9-0.9l0,0c0.5,0,0.9,0.4,0.9,0.9s-0.4,0.9-0.9,0.9l0,0
		C-2060.5-4504.5-2060.9-4504.9-2060.9-4505.4z M-2054.9-4505.4c0-0.5,0.4-0.9,0.9-0.9l0,0c0.5,0,0.9,0.4,0.9,0.9s-0.4,0.9-0.9,0.9
		l0,0C-2054.5-4504.5-2054.9-4504.9-2054.9-4505.4z M-2048.9-4505.4c0-0.5,0.4-0.9,0.9-0.9l0,0c0.5,0,0.9,0.4,0.9,0.9
		s-0.4,0.9-0.9,0.9l0,0C-2048.5-4504.5-2048.9-4504.9-2048.9-4505.4z M-2042.9-4505.4c0-0.5,0.4-0.9,0.9-0.9l0,0l0,0
		c0.5,0,0.9,0.4,0.9,0.9l0,0c0,0.5-0.4,0.9-0.9,0.9l0,0l0,0C-2042.5-4504.5-2042.9-4504.9-2042.9-4505.4L-2042.9-4505.4z
		 M-2036.9-4505.4c0-0.5,0.4-0.9,0.9-0.9l0,0l0,0c0.5,0,0.9,0.4,0.9,0.9l0,0c0,0.5-0.4,0.9-0.9,0.9l0,0l0,0
		C-2036.5-4504.5-2036.9-4504.9-2036.9-4505.4z M-2030.9-4505.4c0-0.5,0.4-0.9,0.9-0.9l0,0l0,0c0.5,0,0.9,0.4,0.9,0.9l0,0
		c0,0.5-0.4,0.9-0.9,0.9l0,0l0,0C-2030.5-4504.5-2030.9-4504.9-2030.9-4505.4L-2030.9-4505.4L-2030.9-4505.4z M-2024.9-4505.4
		c0-0.5,0.4-0.9,0.9-0.9l0,0l0,0c0.5,0,0.9,0.4,0.9,0.9l0,0c0,0.5-0.4,0.9-0.9,0.9l0,0l0,0
		C-2024.5-4504.5-2024.9-4504.9-2024.9-4505.4z M-2018.9-4505.4c0-0.5,0.4-0.9,0.9-0.9l0,0l0,0c0.5,0,0.9,0.4,0.9,0.9l0,0
		c0,0.5-0.4,0.9-0.9,0.9l0,0l0,0C-2018.5-4504.5-2018.9-4504.9-2018.9-4505.4L-2018.9-4505.4z M-2012.9-4505.4
		c0-0.5,0.4-0.9,0.9-0.9l0,0l0,0c0.5,0,0.9,0.4,0.9,0.9l0,0c0,0.5-0.4,0.9-0.9,0.9l0,0l0,0
		C-2012.5-4504.5-2012.9-4504.9-2012.9-4505.4L-2012.9-4505.4z M-2006.9-4505.4c0-0.5,0.4-0.9,0.9-0.9l0,0l0,0
		c0.5,0,0.9,0.4,0.9,0.9l0,0c0,0.5-0.4,0.9-0.9,0.9l0,0l0,0C-2006.5-4504.5-2006.9-4504.9-2006.9-4505.4L-2006.9-4505.4z
		 M-2000.8-4505.4c0-0.5,0.4-0.9,0.9-0.9l0,0l0,0c0.5,0,0.9,0.4,0.9,0.9l0,0c0,0.5-0.4,0.9-0.9,0.9l0,0l0,0
		C-2000.4-4504.5-2000.8-4504.9-2000.8-4505.4L-2000.8-4505.4z M-1994.8-4505.4c0-0.5,0.4-0.9,0.9-0.9l0,0l0,0
		c0.5,0,0.9,0.4,0.9,0.9l0,0c0,0.5-0.4,0.9-0.9,0.9l0,0l0,0C-1994.4-4504.5-1994.8-4504.9-1994.8-4505.4L-1994.8-4505.4z
		 M-1988.8-4505.4c0-0.5,0.4-0.9,0.9-0.9l0,0l0,0c0.5,0,0.9,0.4,0.9,0.9l0,0c0,0.5-0.4,0.9-0.9,0.9l0,0l0,0
		C-1988.4-4504.5-1988.8-4504.9-1988.8-4505.4L-1988.8-4505.4z M-1982.8-4505.4c0-0.5,0.4-0.9,0.9-0.9l0,0l0,0
		c0.5,0,0.9,0.4,0.9,0.9l0,0c0,0.5-0.4,0.9-0.9,0.9l0,0l0,0C-1982.4-4504.5-1982.8-4504.9-1982.8-4505.4L-1982.8-4505.4
		L-1982.8-4505.4z M-1976.8-4505.4c0-0.5,0.4-0.9,0.9-0.9l0,0l0,0c0.5,0,0.9,0.4,0.9,0.9l0,0c0,0.5-0.4,0.9-0.9,0.9l0,0l0,0
		C-1976.4-4504.5-1976.8-4504.9-1976.8-4505.4L-1976.8-4505.4z M-1970.8-4505.4c0-0.5,0.4-0.9,0.9-0.9l0,0l0,0
		c0.5,0,0.9,0.4,0.9,0.9l0,0c0,0.5-0.4,0.9-0.9,0.9l0,0l0,0C-1970.4-4504.5-1970.8-4504.9-1970.8-4505.4L-1970.8-4505.4
		L-1970.8-4505.4z M-1964.8-4505.4c0-0.5,0.4-0.9,0.9-0.9l0,0l0,0c0.5,0,0.9,0.4,0.9,0.9l0,0c0,0.5-0.4,0.9-0.9,0.9l0,0l0,0
		C-1964.4-4504.5-1964.8-4504.9-1964.8-4505.4L-1964.8-4505.4L-1964.8-4505.4z M-1958.8-4505.4c0-0.5,0.4-0.9,0.9-0.9l0,0l0,0
		c0.5,0,0.9,0.4,0.9,0.9l0,0c0,0.5-0.4,0.9-0.9,0.9l0,0l0,0C-1958.4-4504.5-1958.8-4504.9-1958.8-4505.4L-1958.8-4505.4
		L-1958.8-4505.4z M-1952.8-4505.4c0-0.5,0.4-0.9,0.9-0.9l0,0l0,0c0.5,0,0.9,0.4,0.9,0.9l0,0c0,0.5-0.4,0.9-0.9,0.9l0,0l0,0
		C-1952.4-4504.5-1952.8-4504.9-1952.8-4505.4L-1952.8-4505.4L-1952.8-4505.4z M-1946.8-4505.4c0-0.5,0.4-0.9,0.9-0.9l0,0
		c0.5,0,0.9,0.4,0.9,0.9s-0.4,0.9-0.9,0.9l0,0C-1946.4-4504.5-1946.8-4504.9-1946.8-4505.4L-1946.8-4505.4L-1946.8-4505.4z
		 M-1940.8-4505.4c0-0.5,0.4-0.9,0.9-0.9l0,0c0.5,0,0.9,0.4,0.9,0.9s-0.4,0.9-0.9,0.9l0,0
		C-1940.4-4504.5-1940.8-4504.9-1940.8-4505.4L-1940.8-4505.4L-1940.8-4505.4z M-1934.8-4505.4c0-0.5,0.4-0.9,0.9-0.9l0,0
		c0.5,0,0.9,0.4,0.9,0.9s-0.4,0.9-0.9,0.9l0,0C-1934.4-4504.5-1934.8-4504.9-1934.8-4505.4L-1934.8-4505.4L-1934.8-4505.4z
		 M-1928.8-4505.4c0-0.5,0.4-0.9,0.9-0.9l0,0c0.5,0,0.9,0.4,0.9,0.9s-0.4,0.9-0.9,0.9l0,0
		C-1928.4-4504.5-1928.8-4504.9-1928.8-4505.4L-1928.8-4505.4L-1928.8-4505.4z M-1922.8-4505.4c0-0.5,0.4-0.9,0.9-0.9l0,0l0,0
		c0.5,0,0.9,0.4,0.9,0.9l0,0c0,0.5-0.4,0.9-0.9,0.9l0,0l0,0C-1922.4-4504.5-1922.8-4504.9-1922.8-4505.4z M-1916.8-4505.4
		c0-0.5,0.4-0.9,0.9-0.9l0,0l0,0c0.5,0,0.9,0.4,0.9,0.9l0,0c0,0.5-0.4,0.9-0.9,0.9l0,0l0,0
		C-1916.4-4504.5-1916.8-4504.9-1916.8-4505.4L-1916.8-4505.4z"/>
	<g id="Group_2770" transform="translate(-2780.18 -4757.288)">
		<path id="Path_229" class="st0" d="M674.7,85.9h-17.2l-0.2-0.1L621.9,60l0,0c-0.3-0.3-0.3-0.8,0-1.1c0.1-0.2,0.4-0.3,0.6-0.3h14.8
			l0.2,0.1L674.7,85.9z M658,84.4h12l-33.2-24.3h-12L658,84.4z"/>
		<path id="Line_272" class="st0" d="M586.6,85.8l-0.9-1.3L622,58.7l0.9,1.3L586.6,85.8z"/>
		<path id="Line_273" class="st0" d="M659.3,171.8h-1.6V96.5h1.6V171.8z"/>
		<path id="Line_274" class="st0" d="M587.2,131.3h-1.6V84.6h1.6V131.3z"/>
		<path id="Line_275" class="st0" d="M675.5,156.1h-1.6V93.3h1.6V156.1z"/>
		<g id="Group_158">
			<path id="Rectangle_227" class="st0" d="M610.2,92h25.6v26h-25.6V92z M634.2,93.5h-22.4v22.9h22.4V93.5z"/>
			
				<linearGradient id="Rectangle_228_1_" gradientUnits="userSpaceOnUse" x1="-2313.4016" y1="2355.187" x2="-2314.4016" y2="2353.5911" gradientTransform="matrix(15.084 0 0 14.781 35523.8633 -34698.4531)">
				<stop  offset="0" style="stop-color:#FFCF00"/>
				<stop  offset="1" style="stop-color:#FFF1B2;stop-opacity:0"/>
			</linearGradient>
			<rect id="Rectangle_228" x="615.5" y="97.6" class="st10" width="15.1" height="14.8"/>
			<g id="Group_156">
				<path id="Path_231" class="st0" d="M650.3,117.9h-15.4v-1.5h13.8V93.5H635v-1.6h15.2L650.3,117.9z"/>
				<g id="Group_155">
					<path id="Line_276" class="st0" d="M645.9,97.6h-7V96h7V97.6z"/>
					<path id="Line_277" class="st0" d="M645.9,100.8h-7v-1.6h7V100.8z"/>
					<path id="Line_278" class="st0" d="M645.9,104.1h-7v-1.6h7V104.1z"/>
					<path id="Line_279" class="st0" d="M645.9,107.4h-7v-1.6h7V107.4z"/>
					<path id="Line_280" class="st0" d="M645.9,110.6h-7V109h7V110.6z"/>
					<path id="Line_281" class="st0" d="M645.9,113.9h-7v-1.6h7V113.9z"/>
				</g>
			</g>
			<path id="Path_232" class="st0" d="M611,117.9h-15.4v-26h15.2v1.6h-13.6v22.9H611V117.9z"/>
			<g id="Group_157">
				<path id="Line_282" class="st0" d="M607.1,97.6h-7V96h7V97.6z"/>
				<path id="Line_283" class="st0" d="M607.1,100.8h-7v-1.6h7V100.8z"/>
				<path id="Line_284" class="st0" d="M607.1,104.1h-7v-1.6h7V104.1z"/>
				<path id="Line_285" class="st0" d="M607.1,107.4h-7v-1.6h7V107.4z"/>
				<path id="Line_286" class="st0" d="M607.1,110.6h-7V109h7V110.6z"/>
				<path id="Line_287" class="st0" d="M607.1,113.9h-7v-1.6h7V113.9z"/>
			</g>
		</g>
		<path id="Line_288" class="st0" d="M617.2,148.8h-61.6v-1.6h61.6V148.8z"/>
		<path id="Line_289" class="st0" d="M593,334.3h-1.6V164.6h1.6V334.3z"/>
		<path id="Line_290" class="st0" d="M520.6,320.5H519V179h1.6V320.5z"/>
		<g id="Group_159" transform="translate(-11.517 -28)">
			<path id="Line_291" class="st0" d="M698.7,288.3l-0.4-31.5h1.6l0.4,31.5H698.7z"/>
			<path id="Path_233" class="st3" d="M695.2,262.5c0.4,0.7,3.9,5.9,3.9,5.9"/>
			<path id="Path_233_-_Outline" class="st0" d="M698.5,268.8c-0.1-0.2-3.5-5.3-4-5.9l1.3-0.8c0.4,0.6,3.9,5.9,3.9,5.9L698.5,268.8z
				"/>
			<path id="Path_234" class="st0" d="M699.5,249.1c3.5,0,5.9,1.3,7.3,3.8c1,2.1,1.5,4.3,1.5,6.5c0,0.8,0.1,1.6,0.4,2.4
				c1.6,3.5,1.8,6.5,0.5,9c-1,1.8-2.5,3.3-4.3,4.2c-2.2,1.2-4.5,2-6.9,2.5c-0.6,0.1-1.3,0.2-1.9,0.2c-2.7,0-5.1-1.4-7-4.2
				c-1.6-2.6-2.8-5.5-3.4-8.5c-0.8-3.4-0.2-7,1.7-9.9c1.8-2.8,4.6-4.8,7.9-5.5C696.7,249.3,698.1,249.1,699.5,249.1z M696.1,276.2
				c0.5,0,1-0.1,1.5-0.2c5.4-1.2,8.8-3.2,10.1-5.8c1-2.1,0.8-4.6-0.6-7.7c-0.3-0.9-0.5-1.9-0.5-2.9c0-2-0.5-4.1-1.3-5.9
				c-1.1-2-3.1-3-6-3c-1.3,0-2.5,0.2-3.8,0.4c-2.9,0.6-5.4,2.4-6.9,4.9c-1.6,2.6-2.2,5.7-1.5,8.7c0.6,2.8,1.7,5.5,3.2,8
				C692.1,275,694,276.2,696.1,276.2L696.1,276.2z"/>
		</g>
		<g id="Group_160">
			<path id="Line_292" class="st0" d="M658,215.1l-0.4-26.9h1.6l0.4,26.9H658z"/>
			<path id="Path_235" class="st0" d="M658.1,200.4c0,0-1.5-0.9-3.1-1.9c-3.2-2-3.5-2.4-3.6-2.6l1.3-0.8l0,0c2,1.5,4,2.8,6.2,4
				L658.1,200.4z"/>
			<path id="Path_236" class="st0" d="M659,180.5c3.6-0.2,7.1,1.4,9.4,4.3c1.5,2.1,2.6,4.4,3.3,6.9c0.1,0.5,0.3,1,0.5,1.5
				c1.2,2.3,1.3,5,0.2,7.3c-1,2.1-3,3.9-6,5.4c-2.8,1.4-5.8,2.4-8.9,3c-0.6,0.1-1.3,0.2-1.9,0.2c-2.7,0-5.1-1.4-7-4.2
				c-1.6-2.6-2.8-5.5-3.4-8.5c-0.8-3.4-0.2-7,1.7-9.9c1.8-2.8,4.6-4.8,7.9-5.5C656.1,180.7,657.5,180.5,659,180.5z M655.5,207.5
				c0.5,0,1-0.1,1.5-0.2c3-0.6,5.8-1.6,8.6-2.9c2.7-1.4,4.5-2.9,5.3-4.7c0.9-1.9,0.8-4.1-0.2-6c-0.2-0.5-0.4-1.1-0.6-1.7
				c-0.6-2.3-1.6-4.5-3-6.4c-0.9-1.1-1.9-2-3.2-2.6c-1.6-0.7-3.3-1.1-5-1.1c-1.3,0-2.6,0.2-3.9,0.4c-2.9,0.6-5.4,2.4-6.9,4.9
				c-1.6,2.6-2.2,5.7-1.5,8.7c0.6,2.8,1.7,5.5,3.2,8C651.4,206.4,653.3,207.5,655.5,207.5L655.5,207.5z"/>
		</g>
		<g id="Group_161" transform="translate(-10 10.916)">
			<path id="Rectangle_229" class="st0" d="M548.7,191.4h30.8v14.5h-30.8V191.4z M578,193h-27.7v11.4H578V193z"/>
			<path id="Rectangle_230" class="st0" d="M548.7,174h30.8v14.5h-30.8V174z M578,175.6h-27.7V187H578V175.6z"/>
		</g>
		<g id="Group_162" transform="translate(-10 10.916)">
			<path id="Rectangle_233" class="st0" d="M548.7,238.5h30.8V253h-30.8V238.5z M578,240.1h-27.7v11.4H578V240.1z"/>
			<path id="Rectangle_234" class="st0" d="M548.7,221.1h30.8v14.5h-30.8V221.1z M578,222.7h-27.7v11.4H578V222.7z"/>
			<rect id="Rectangle_235" x="552.7" y="224.9" class="st11" width="22.9" height="6.9"/>
			
				<linearGradient id="Rectangle_236_1_" gradientUnits="userSpaceOnUse" x1="-2241.5154" y1="2159.2637" x2="-2240.4055" y2="2158.3777" gradientTransform="matrix(22.913 0 0 6.918 51911.3711 -14689.0244)">
				<stop  offset="0" style="stop-color:#FFCF00"/>
				<stop  offset="1" style="stop-color:#FFF1B2;stop-opacity:4.300000e-02"/>
			</linearGradient>
			<rect id="Rectangle_236" x="552.7" y="242.3" class="st12" width="22.9" height="6.9"/>
		</g>
		<path id="Path_237" class="st0" d="M566,331.3h-1.6v-38.1h-20.6v38.1h-1.6v-39.6h23.7L566,331.3z"/>
		<path id="Line_293" class="st0" d="M510.2,180.5l-0.9-1.3l45.8-32l0.9,1.3L510.2,180.5z"/>
		<path id="Line_297" class="st0" d="M609.2,320.5h-1.6V156.1h1.6V320.5z"/>
	</g>
</g>
<g id="Layer_2">
	<g id="Layer_1-2">
		<path class="st13" d="M18.2,364.3h136.7c0.6,0,1.1-0.5,1.1-1.1c0-0.2,0-0.3-0.1-0.5l-17.4-33.6H1.8c-0.6,0-1.1,0.5-1.1,1.1
			c0,0.2,0,0.3,0.1,0.5L18.2,364.3z"/>
		<line class="st13" x1="34.4" y1="329.1" x2="52.6" y2="364.3"/>
		<line class="st13" x1="69.2" y1="329.1" x2="87.3" y2="364.3"/>
		<line class="st13" x1="104" y1="329.1" x2="122.1" y2="364.3"/>
		<line class="st13" x1="143.8" y1="339.1" x2="5.4" y2="339.1"/>
		<line class="st13" x1="150" y1="351.7" x2="11.6" y2="351.7"/>
		<path class="st13" d="M195.7,364.3h136.7c0.6,0,1.1-0.5,1.1-1.1c0-0.2,0-0.3-0.1-0.5l-17.4-33.6H179.3c-0.6,0-1.1,0.5-1.1,1
			c0,0.2,0,0.3,0.1,0.5L195.7,364.3z"/>
		<line class="st13" x1="211.9" y1="329.1" x2="230" y2="364.3"/>
		<line class="st13" x1="246.7" y1="329.1" x2="264.8" y2="364.3"/>
		<line class="st13" x1="281.4" y1="329.1" x2="299.6" y2="364.3"/>
		<line class="st13" x1="321.3" y1="339.1" x2="182.9" y2="339.1"/>
		<line class="st13" x1="327.5" y1="351.7" x2="189.1" y2="351.7"/>
		<path id="Path_287" class="st14" d="M78.3,394.2v-24.1"/>
		<path id="Path_287-2" class="st14" d="M157.8,346.7h18.7"/>
		<path id="Path_287-3" class="st14" d="M252.1,370.1v24.1"/>
	</g>
</g>
</svg>
