<?xml version="1.0" encoding="utf-8"?>
<!-- Generator: Adobe Illustrator 23.0.1, SVG Export Plug-In . SVG Version: 6.00 Build 0)  -->
<svg version="1.1" id="Capa_1" xmlns="http://www.w3.org/2000/svg" xmlns:xlink="http://www.w3.org/1999/xlink" x="0px" y="0px"
	 viewBox="0 0 426.6 229.7" style="enable-background:new 0 0 426.6 229.7;" xml:space="preserve">
<style type="text/css">
	.st0{fill:#414042;}
	.st1{fill:#9D9D9D;}
	.st2{fill:#FFFFFF;}
	.st3{fill:#8D8D8D;}
	.st4{fill:#76AFFF;}
	.st5{fill:url(#Rectangle_221_1_);}
	.st6{fill:url(#Rectangle_222_1_);}
	.st7{fill:url(#Rectangle_240_1_);}
	.st8{fill:url(#Rectangle_243_1_);}
	.st9{fill:url(#Rectangle_228_1_);}
	.st10{fill:#FAE995;}
	.st11{fill:url(#Rectangle_236_1_);}
	.st12{fill:#9C9C9C;}
</style>
<g id="Group_2769" transform="translate(3303.8 4681.001)">
	<g id="Group_175" transform="translate(-3176.143 -4460.742)">
		<path id="Path_258" class="st0" d="M-36.2-49.2l-9.1-13.3h18.2L-36.2-49.2z M-43.8-61.7l7.7,11.2l7.7-11.2H-43.8z"/>
		<path id="Line_333" class="st0" d="M-20.9-61.7h-30.7v-0.8h30.7V-61.7z"/>
		<path id="Line_334" class="st0" d="M-19-64.2h-34.5V-65H-19L-19-64.2z"/>
		<path id="Line_335" class="st0" d="M-49.6-64.6h-0.8v-3.1h0.8V-64.6z"/>
		<path id="Line_336" class="st0" d="M-47.7-64.6h-0.8v-3.1h0.8V-64.6z"/>
		<path id="Line_337" class="st0" d="M-24.6-64.6h-0.8v-3.1h0.8V-64.6z"/>
		<path id="Line_338" class="st0" d="M-22.7-64.6h-0.8v-3.1h0.8V-64.6z"/>
		<path id="Path_259" class="st1" d="M-36.2-18.9c-0.3,0-0.5-0.2-0.5-0.5c0,0,0,0,0,0l0,0c0-0.3,0.2-0.5,0.5-0.5c0,0,0,0,0,0
			c0.3,0,0.5,0.2,0.5,0.5c0,0,0,0,0,0l0,0C-35.8-19.1-36-18.9-36.2-18.9C-36.2-18.9-36.2-18.9-36.2-18.9z M-36.2-22
			c-0.3,0-0.5-0.2-0.5-0.5c0,0,0,0,0,0l0,0c0-0.3,0.2-0.5,0.5-0.5c0,0,0,0,0,0c0.3,0,0.5,0.2,0.5,0.5c0,0,0,0,0,0l0,0
			C-35.8-22.2-36-22-36.2-22C-36.2-22-36.2-22-36.2-22z M-36.2-25.1c-0.3,0-0.5-0.2-0.5-0.5c0,0,0,0,0,0l0,0c0-0.3,0.2-0.5,0.5-0.5
			c0,0,0,0,0,0c0.3,0,0.5,0.2,0.5,0.5c0,0,0,0,0,0l0,0C-35.8-25.3-36-25.1-36.2-25.1C-36.2-25.1-36.2-25.1-36.2-25.1z M-36.2-28.2
			c-0.3,0-0.5-0.2-0.5-0.5c0,0,0,0,0,0l0,0c0-0.3,0.2-0.5,0.5-0.5c0,0,0,0,0,0c0.3,0,0.5,0.2,0.5,0.5c0,0,0,0,0,0l0,0
			C-35.8-28.4-36-28.2-36.2-28.2C-36.2-28.2-36.2-28.2-36.2-28.2z M-36.2-31.3c-0.3,0-0.5-0.2-0.5-0.5c0,0,0,0,0,0l0,0
			c0-0.3,0.2-0.5,0.5-0.5c0,0,0,0,0,0c0.3,0,0.5,0.2,0.5,0.5c0,0,0,0,0,0l0,0C-35.8-31.5-36-31.3-36.2-31.3
			C-36.2-31.3-36.2-31.3-36.2-31.3z M-36.2-34.4c-0.3,0-0.5-0.2-0.5-0.5c0,0,0,0,0,0l0,0c0-0.3,0.2-0.5,0.5-0.5c0,0,0,0,0,0
			c0.3,0,0.5,0.2,0.5,0.5c0,0,0,0,0,0l0,0C-35.8-34.6-36-34.4-36.2-34.4C-36.2-34.4-36.2-34.4-36.2-34.4z M-36.2-37.5
			c-0.3,0-0.5-0.2-0.5-0.5c0,0,0,0,0,0l0,0c0-0.3,0.2-0.5,0.5-0.5c0,0,0,0,0,0c0.3,0,0.5,0.2,0.5,0.5c0,0,0,0,0,0l0,0
			C-35.8-37.7-36-37.5-36.2-37.5C-36.2-37.5-36.2-37.5-36.2-37.5z M-36.2-40.6c-0.3,0-0.5-0.2-0.5-0.5c0,0,0,0,0,0l0,0
			c0-0.3,0.2-0.5,0.5-0.5c0,0,0,0,0,0c0.3,0,0.5,0.2,0.5,0.5c0,0,0,0,0,0l0,0C-35.8-40.8-36-40.6-36.2-40.6
			C-36.2-40.6-36.2-40.6-36.2-40.6z M-36.2-43.7c-0.3,0-0.5-0.2-0.5-0.5c0,0,0,0,0,0l0,0c0-0.3,0.2-0.5,0.5-0.5c0,0,0,0,0,0
			c0.3,0,0.5,0.2,0.5,0.5c0,0,0,0,0,0l0,0C-35.8-43.9-36-43.7-36.2-43.7C-36.2-43.7-36.2-43.7-36.2-43.7z M-36.2-46.8
			c-0.3,0-0.5-0.2-0.5-0.5c0,0,0,0,0,0l0,0c0-0.3,0.2-0.5,0.5-0.5c0,0,0,0,0,0c0.3,0,0.5,0.2,0.5,0.5c0,0,0,0,0,0l0,0
			C-35.8-47-36-46.8-36.2-46.8C-36.2-46.8-36.2-46.8-36.2-46.8z"/>
	</g>
	<path id="Path_285" class="st1" d="M-3192.6-4525.4c0-0.3,0.2-0.5,0.5-0.5c0,0,0,0,0,0l0,0c0.3,0,0.5,0.2,0.5,0.5c0,0,0,0,0,0
		c0,0.3-0.2,0.5-0.5,0.5c0,0,0,0,0,0l0,0C-3192.4-4524.9-3192.6-4525.1-3192.6-4525.4C-3192.6-4525.4-3192.6-4525.4-3192.6-4525.4z
		 M-3189.5-4525.4c0-0.3,0.2-0.5,0.5-0.5c0,0,0,0,0,0l0,0c0.3,0,0.5,0.2,0.5,0.5c0,0,0,0,0,0c0,0.3-0.2,0.5-0.5,0.5c0,0,0,0,0,0l0,0
		C-3189.3-4524.9-3189.5-4525.1-3189.5-4525.4C-3189.5-4525.4-3189.5-4525.4-3189.5-4525.4z M-3186.4-4525.4c0-0.3,0.2-0.5,0.5-0.5
		c0,0,0,0,0,0l0,0c0.3,0,0.5,0.2,0.5,0.5c0,0,0,0,0,0c0,0.3-0.2,0.5-0.5,0.5c0,0,0,0,0,0l0,0
		C-3186.2-4524.9-3186.4-4525.1-3186.4-4525.4C-3186.4-4525.4-3186.4-4525.4-3186.4-4525.4z M-3183.9-4523.6c0-0.3,0.2-0.5,0.5-0.5
		c0,0,0,0,0,0c0.1,0,0.2,0,0.3,0.1l0,0c0.2,0.2,0.2,0.5,0.1,0.7c-0.2,0.2-0.4,0.2-0.6,0.1l0,0
		C-3183.8-4523.2-3183.9-4523.4-3183.9-4523.6L-3183.9-4523.6z M-3181.5-4521.6c0-0.3,0.2-0.5,0.5-0.5c0,0,0,0,0,0
		c0.1,0,0.2,0,0.3,0.1l0,0c0.2,0.2,0.2,0.5,0.1,0.7c-0.2,0.2-0.4,0.2-0.6,0.1l0,0C-3181.4-4521.3-3181.5-4521.5-3181.5-4521.6
		L-3181.5-4521.6z M-3179-4519.7c0-0.3,0.2-0.5,0.5-0.5c0,0,0,0,0,0c0.1,0,0.2,0,0.3,0.1l0,0c0.2,0.2,0.3,0.5,0.1,0.7
		c-0.2,0.2-0.5,0.3-0.7,0.1l0,0C-3179-4519.4-3179-4519.6-3179-4519.7L-3179-4519.7z M-3176.6-4517.8c0-0.3,0.2-0.5,0.5-0.5
		c0,0,0,0,0,0c0.1,0,0.2,0,0.3,0.1l0,0c0.2,0.2,0.2,0.5,0.1,0.7c-0.2,0.2-0.4,0.2-0.6,0.1l0,0
		C-3176.5-4517.5-3176.6-4517.7-3176.6-4517.8L-3176.6-4517.8z M-3174.1-4515.9c0-0.3,0.2-0.5,0.5-0.5c0,0,0,0,0,0
		c0.1,0,0.2,0,0.3,0.1l0,0c0.2,0.2,0.3,0.5,0.1,0.7c-0.2,0.2-0.5,0.3-0.7,0.1l0,0C-3174.1-4515.6-3174.1-4515.7-3174.1-4515.9
		L-3174.1-4515.9z M-3171.7-4514c0-0.3,0.2-0.5,0.5-0.5c0,0,0,0,0,0c0.1,0,0.2,0,0.3,0.1l0,0c0.2,0.2,0.3,0.5,0.1,0.7
		c-0.2,0.2-0.5,0.3-0.7,0.1l0,0C-3171.6-4513.7-3171.7-4513.8-3171.7-4514L-3171.7-4514z M-3169.3-4512.1c0-0.3,0.2-0.5,0.5-0.5
		c0,0,0,0,0,0c0.1,0,0.2,0,0.3,0.1l0,0c0.2,0.2,0.2,0.5,0.1,0.7c-0.2,0.2-0.4,0.2-0.6,0.1l0,0
		C-3169.2-4511.8-3169.3-4511.9-3169.3-4512.1L-3169.3-4512.1z M-3166.8-4510.2c0-0.3,0.2-0.5,0.5-0.5c0,0,0,0,0,0
		c0.1,0,0.2,0,0.3,0.1l0,0c0.2,0.2,0.2,0.5,0.1,0.7c-0.2,0.2-0.4,0.2-0.6,0.1l0,0C-3166.7-4509.9-3166.8-4510-3166.8-4510.2
		L-3166.8-4510.2z"/>
	<path id="Path_115" class="st2" d="M-3239.1-4649c-0.3,0-0.5-0.2-0.5-0.5c0,0,0,0,0,0l0,0c0-0.3,0.2-0.5,0.5-0.5c0,0,0,0,0,0
		c0.3,0,0.5,0.2,0.5,0.5c0,0,0,0,0,0l0,0C-3238.7-4649.2-3238.9-4649-3239.1-4649C-3239.1-4649-3239.1-4649-3239.1-4649z
		 M-3239.1-4652.1c-0.3,0-0.5-0.2-0.5-0.5c0,0,0,0,0,0l0,0c0-0.3,0.2-0.5,0.5-0.5c0,0,0,0,0,0c0.3,0,0.5,0.2,0.5,0.5c0,0,0,0,0,0
		l0,0C-3238.7-4652.3-3238.9-4652.1-3239.1-4652.1C-3239.1-4652.1-3239.1-4652.1-3239.1-4652.1z M-3239.1-4655.2
		c-0.3,0-0.5-0.2-0.5-0.5c0,0,0,0,0,0l0,0c0-0.3,0.2-0.5,0.5-0.5c0,0,0,0,0,0c0.3,0,0.5,0.2,0.5,0.5c0,0,0,0,0,0l0,0
		C-3238.7-4655.4-3238.9-4655.2-3239.1-4655.2L-3239.1-4655.2z M-3239.1-4658.3c-0.3,0-0.5-0.2-0.5-0.5c0,0,0,0,0,0l0,0
		c0-0.3,0.2-0.5,0.5-0.5c0,0,0,0,0,0c0.3,0,0.5,0.2,0.5,0.5c0,0,0,0,0,0l0,0C-3238.7-4658.5-3238.9-4658.3-3239.1-4658.3
		C-3239.1-4658.3-3239.1-4658.3-3239.1-4658.3z M-3239.1-4661.4c-0.3,0-0.5-0.2-0.5-0.5c0,0,0,0,0,0l0,0c0-0.3,0.2-0.5,0.5-0.5
		c0,0,0,0,0,0c0.3,0,0.5,0.2,0.5,0.5c0,0,0,0,0,0l0,0C-3238.7-4661.6-3238.9-4661.5-3239.1-4661.4z M-3239.1-4664.6
		c-0.3,0-0.5-0.2-0.5-0.5c0,0,0,0,0,0l0,0c0-0.3,0.2-0.5,0.5-0.5c0,0,0,0,0,0c0.3,0,0.5,0.2,0.5,0.5c0,0,0,0,0,0l0,0
		C-3238.7-4664.8-3238.9-4664.6-3239.1-4664.6C-3239.1-4664.6-3239.1-4664.6-3239.1-4664.6z M-3239.1-4667.7c-0.3,0-0.5-0.2-0.5-0.5
		c0,0,0,0,0,0l0,0c0-0.3,0.2-0.5,0.5-0.5c0,0,0,0,0,0c0.3,0,0.5,0.2,0.5,0.5c0,0,0,0,0,0l0,0
		C-3238.7-4667.9-3238.9-4667.7-3239.1-4667.7C-3239.1-4667.7-3239.1-4667.7-3239.1-4667.7z M-3239.1-4670.8c-0.3,0-0.5-0.2-0.5-0.5
		c0,0,0,0,0,0l0,0c0-0.3,0.2-0.5,0.5-0.5c0,0,0,0,0,0c0.3,0,0.5,0.2,0.5,0.5c0,0,0,0,0,0l0,0
		C-3238.7-4671-3238.9-4670.8-3239.1-4670.8C-3239.1-4670.8-3239.1-4670.8-3239.1-4670.8z M-3239.1-4673.9c-0.3,0-0.5-0.2-0.5-0.5
		c0,0,0,0,0,0l0,0c0-0.3,0.2-0.5,0.5-0.5c0,0,0,0,0,0c0.3,0,0.5,0.2,0.5,0.5c0,0,0,0,0,0l0,0
		C-3238.7-4674.1-3238.9-4673.9-3239.1-4673.9C-3239.1-4673.9-3239.1-4673.9-3239.1-4673.9z M-3239.1-4677c-0.3,0-0.5-0.2-0.5-0.5
		c0,0,0,0,0,0l0,0c0-0.3,0.2-0.5,0.5-0.5c0,0,0,0,0,0c0.3,0,0.5,0.2,0.5,0.5c0,0,0,0,0,0l0,0
		C-3238.7-4677.2-3238.9-4677-3239.1-4677C-3239.1-4677-3239.1-4677-3239.1-4677z M-3239.1-4680.1c-0.3,0-0.5-0.2-0.5-0.5
		c0,0,0,0,0,0l0,0c0-0.3,0.2-0.5,0.5-0.5c0,0,0,0,0,0c0.3,0,0.5,0.2,0.5,0.5c0,0,0,0,0,0l0,0
		C-3238.7-4680.3-3238.9-4680.1-3239.1-4680.1C-3239.1-4680.1-3239.1-4680.1-3239.1-4680.1z"/>
	<path id="Path_118" class="st2" d="M-3064.5-4649c-0.3,0-0.5-0.2-0.5-0.5c0,0,0,0,0,0l0,0c0-0.3,0.2-0.5,0.5-0.5c0,0,0,0,0,0
		c0.3,0,0.5,0.2,0.5,0.5c0,0,0,0,0,0l0,0C-3064.1-4649.2-3064.3-4649-3064.5-4649C-3064.5-4649-3064.5-4649-3064.5-4649z
		 M-3064.5-4652.1c-0.3,0-0.5-0.2-0.5-0.5c0,0,0,0,0,0l0,0c0-0.3,0.2-0.5,0.5-0.5c0,0,0,0,0,0c0.3,0,0.5,0.2,0.5,0.5c0,0,0,0,0,0
		l0,0C-3064.1-4652.3-3064.3-4652.1-3064.5-4652.1C-3064.5-4652.1-3064.5-4652.1-3064.5-4652.1z M-3064.5-4655.2
		c-0.3,0-0.5-0.2-0.5-0.5c0,0,0,0,0,0l0,0c0-0.3,0.2-0.5,0.5-0.5c0,0,0,0,0,0c0.3,0,0.5,0.2,0.5,0.5c0,0,0,0,0,0l0,0
		C-3064.1-4655.4-3064.3-4655.2-3064.5-4655.2L-3064.5-4655.2z M-3064.5-4658.3c-0.3,0-0.5-0.2-0.5-0.5c0,0,0,0,0,0l0,0
		c0-0.3,0.2-0.5,0.5-0.5c0,0,0,0,0,0c0.3,0,0.5,0.2,0.5,0.5c0,0,0,0,0,0l0,0C-3064.1-4658.5-3064.3-4658.3-3064.5-4658.3
		C-3064.5-4658.3-3064.5-4658.3-3064.5-4658.3z M-3064.5-4661.4c-0.3,0-0.5-0.2-0.5-0.5c0,0,0,0,0,0l0,0c0-0.3,0.2-0.5,0.5-0.5
		c0,0,0,0,0,0c0.3,0,0.5,0.2,0.5,0.5c0,0,0,0,0,0l0,0C-3064.1-4661.6-3064.3-4661.5-3064.5-4661.4z M-3064.5-4664.6
		c-0.3,0-0.5-0.2-0.5-0.5c0,0,0,0,0,0l0,0c0-0.3,0.2-0.5,0.5-0.5c0,0,0,0,0,0c0.3,0,0.5,0.2,0.5,0.5c0,0,0,0,0,0l0,0
		C-3064.1-4664.8-3064.3-4664.6-3064.5-4664.6C-3064.5-4664.6-3064.5-4664.6-3064.5-4664.6z M-3064.5-4667.7c-0.3,0-0.5-0.2-0.5-0.5
		c0,0,0,0,0,0l0,0c0-0.3,0.2-0.5,0.5-0.5c0,0,0,0,0,0c0.3,0,0.5,0.2,0.5,0.5c0,0,0,0,0,0l0,0
		C-3064.1-4667.9-3064.3-4667.7-3064.5-4667.7C-3064.5-4667.7-3064.5-4667.7-3064.5-4667.7z M-3064.5-4670.8c-0.3,0-0.5-0.2-0.5-0.5
		c0,0,0,0,0,0l0,0c0-0.3,0.2-0.5,0.5-0.5c0,0,0,0,0,0c0.3,0,0.5,0.2,0.5,0.5c0,0,0,0,0,0l0,0
		C-3064.1-4671-3064.3-4670.8-3064.5-4670.8C-3064.5-4670.8-3064.5-4670.8-3064.5-4670.8z M-3064.5-4673.9c-0.3,0-0.5-0.2-0.5-0.5
		c0,0,0,0,0,0l0,0c0-0.3,0.2-0.5,0.5-0.5c0,0,0,0,0,0c0.3,0,0.5,0.2,0.5,0.5c0,0,0,0,0,0l0,0
		C-3064.1-4674.1-3064.3-4673.9-3064.5-4673.9C-3064.5-4673.9-3064.5-4673.9-3064.5-4673.9z M-3064.5-4677c-0.3,0-0.5-0.2-0.5-0.5
		c0,0,0,0,0,0l0,0c0-0.3,0.2-0.5,0.5-0.5c0,0,0,0,0,0c0.3,0,0.5,0.2,0.5,0.5c0,0,0,0,0,0l0,0
		C-3064.1-4677.2-3064.3-4677-3064.5-4677C-3064.5-4677-3064.5-4677-3064.5-4677z M-3064.5-4680.1c-0.3,0-0.5-0.2-0.5-0.5
		c0,0,0,0,0,0l0,0c0-0.3,0.2-0.5,0.5-0.5c0,0,0,0,0,0c0.3,0,0.5,0.2,0.5,0.5c0,0,0,0,0,0l0,0
		C-3064.1-4680.3-3064.3-4680.1-3064.5-4680.1C-3064.5-4680.1-3064.5-4680.1-3064.5-4680.1z"/>
	<path id="Path_116" class="st1" d="M-3212.1-4530.5c-0.3,0-0.5-0.2-0.5-0.5c0,0,0,0,0,0l0,0c0-0.3,0.2-0.5,0.5-0.5c0,0,0,0,0,0
		c0.3,0,0.5,0.2,0.5,0.5c0,0,0,0,0,0l0,0C-3211.6-4530.7-3211.8-4530.5-3212.1-4530.5C-3212.1-4530.5-3212.1-4530.5-3212.1-4530.5z
		 M-3212.1-4533.6c-0.3,0-0.5-0.2-0.5-0.5c0,0,0,0,0,0l0,0c0-0.3,0.2-0.5,0.5-0.5c0,0,0,0,0,0c0.3,0,0.5,0.2,0.5,0.5c0,0,0,0,0,0
		l0,0C-3211.6-4533.8-3211.8-4533.6-3212.1-4533.6C-3212.1-4533.6-3212.1-4533.6-3212.1-4533.6z M-3212.1-4536.7
		c-0.3,0-0.5-0.2-0.5-0.5c0,0,0,0,0,0l0,0c0-0.3,0.2-0.5,0.5-0.5c0,0,0,0,0,0c0.3,0,0.5,0.2,0.5,0.5c0,0,0,0,0,0l0,0
		C-3211.6-4536.9-3211.8-4536.7-3212.1-4536.7C-3212.1-4536.7-3212.1-4536.7-3212.1-4536.7z M-3212.1-4539.8c-0.3,0-0.5-0.2-0.5-0.5
		c0,0,0,0,0,0l0,0c0-0.3,0.2-0.5,0.5-0.5c0,0,0,0,0,0c0.3,0,0.5,0.2,0.5,0.5c0,0,0,0,0,0l0,0
		C-3211.6-4540-3211.8-4539.8-3212.1-4539.8C-3212.1-4539.8-3212.1-4539.8-3212.1-4539.8z M-3212.1-4542.9c-0.3,0-0.5-0.2-0.5-0.5
		c0,0,0,0,0,0l0,0c0-0.3,0.2-0.5,0.5-0.5c0,0,0,0,0,0c0.3,0,0.5,0.2,0.5,0.5c0,0,0,0,0,0l0,0
		C-3211.6-4543.1-3211.8-4542.9-3212.1-4542.9C-3212.1-4542.9-3212.1-4542.9-3212.1-4542.9z M-3212.1-4546c-0.3,0-0.5-0.2-0.5-0.5
		c0,0,0,0,0,0l0,0c0-0.3,0.2-0.5,0.5-0.5c0,0,0,0,0,0c0.3,0,0.5,0.2,0.5,0.5c0,0,0,0,0,0l0,0
		C-3211.6-4546.2-3211.8-4546-3212.1-4546C-3212.1-4546-3212.1-4546-3212.1-4546z M-3212.1-4549.1c-0.3,0-0.5-0.2-0.5-0.5
		c0,0,0,0,0,0l0,0c0-0.3,0.2-0.5,0.5-0.5c0,0,0,0,0,0c0.3,0,0.5,0.2,0.5,0.5c0,0,0,0,0,0l0,0
		C-3211.6-4549.3-3211.8-4549.1-3212.1-4549.1C-3212.1-4549.1-3212.1-4549.1-3212.1-4549.1z M-3212.1-4552.2c-0.3,0-0.5-0.2-0.5-0.5
		c0,0,0,0,0,0l0,0c0-0.3,0.2-0.5,0.5-0.5c0,0,0,0,0,0c0.3,0,0.5,0.2,0.5,0.5c0,0,0,0,0,0l0,0
		C-3211.6-4552.4-3211.8-4552.2-3212.1-4552.2C-3212.1-4552.2-3212.1-4552.2-3212.1-4552.2z M-3212.1-4555.3c-0.3,0-0.5-0.2-0.5-0.5
		c0,0,0,0,0,0l0,0c0-0.3,0.2-0.5,0.5-0.5c0,0,0,0,0,0c0.3,0,0.5,0.2,0.5,0.5c0,0,0,0,0,0l0,0
		C-3211.6-4555.5-3211.8-4555.3-3212.1-4555.3C-3212.1-4555.3-3212.1-4555.3-3212.1-4555.3z M-3212.1-4558.4c-0.3,0-0.5-0.2-0.5-0.5
		c0,0,0,0,0,0l0,0c0-0.3,0.2-0.5,0.5-0.5c0,0,0,0,0,0c0.3,0,0.5,0.2,0.5,0.5c0,0,0,0,0,0l0,0
		C-3211.6-4558.6-3211.8-4558.4-3212.1-4558.4C-3212.1-4558.4-3212.1-4558.4-3212.1-4558.4z"/>
	<path id="Path_263" class="st1" d="M-2997.3-4514.2c-0.3,0-0.5-0.2-0.5-0.5c0,0,0,0,0,0l0,0c0-0.3,0.2-0.5,0.5-0.5c0,0,0,0,0,0
		c0.3,0,0.5,0.2,0.5,0.5c0,0,0,0,0,0l0,0C-2996.9-4514.4-2997.1-4514.2-2997.3-4514.2C-2997.3-4514.2-2997.3-4514.2-2997.3-4514.2z
		 M-2997.3-4517.3c-0.3,0-0.5-0.2-0.5-0.5c0,0,0,0,0,0l0,0c0-0.3,0.2-0.5,0.5-0.5c0,0,0,0,0,0c0.3,0,0.5,0.2,0.5,0.5c0,0,0,0,0,0
		l0,0C-2996.9-4517.5-2997.1-4517.3-2997.3-4517.3z M-2997.3-4520.4c-0.3,0-0.5-0.2-0.5-0.5c0,0,0,0,0,0l0,0c0-0.3,0.2-0.5,0.5-0.5
		c0,0,0,0,0,0c0.3,0,0.5,0.2,0.5,0.5c0,0,0,0,0,0l0,0C-2996.9-4520.6-2997.1-4520.4-2997.3-4520.4L-2997.3-4520.4z M-2997.3-4523.5
		c-0.3,0-0.5-0.2-0.5-0.5c0,0,0,0,0,0l0,0c0-0.3,0.2-0.5,0.5-0.5c0,0,0,0,0,0c0.3,0,0.5,0.2,0.5,0.5c0,0,0,0,0,0l0,0
		C-2996.9-4523.7-2997.1-4523.5-2997.3-4523.5z M-2997.3-4526.6c-0.3,0-0.5-0.2-0.5-0.5c0,0,0,0,0,0l0,0c0-0.3,0.2-0.5,0.5-0.5
		c0,0,0,0,0,0c0.3,0,0.5,0.2,0.5,0.5c0,0,0,0,0,0l0,0C-2996.9-4526.8-2997.1-4526.6-2997.3-4526.6z M-2997.3-4529.7
		c-0.3,0-0.5-0.2-0.5-0.5c0,0,0,0,0,0l0,0c0-0.3,0.2-0.5,0.5-0.5c0,0,0,0,0,0c0.3,0,0.5,0.2,0.5,0.5c0,0,0,0,0,0l0,0
		C-2996.9-4529.9-2997.1-4529.7-2997.3-4529.7z M-2997.3-4532.8c-0.3,0-0.5-0.2-0.5-0.5c0,0,0,0,0,0l0,0c0-0.3,0.2-0.5,0.5-0.5
		c0,0,0,0,0,0c0.3,0,0.5,0.2,0.5,0.5c0,0,0,0,0,0l0,0C-2996.9-4533-2997.1-4532.8-2997.3-4532.8z M-2997.3-4535.9
		c-0.3,0-0.5-0.2-0.5-0.5c0,0,0,0,0,0l0,0c0-0.3,0.2-0.5,0.5-0.5c0,0,0,0,0,0c0.3,0,0.5,0.2,0.5,0.5c0,0,0,0,0,0l0,0
		C-2996.9-4536.1-2997.1-4535.9-2997.3-4535.9z M-2997.3-4539c-0.3,0-0.5-0.2-0.5-0.5c0,0,0,0,0,0l0,0c0-0.3,0.2-0.5,0.5-0.5
		c0,0,0,0,0,0c0.3,0,0.5,0.2,0.5,0.5c0,0,0,0,0,0l0,0C-2996.9-4539.2-2997.1-4539-2997.3-4539z M-2997.3-4542.1
		c-0.3,0-0.5-0.2-0.5-0.5c0,0,0,0,0,0l0,0c0-0.3,0.2-0.5,0.5-0.5c0,0,0,0,0,0c0.3,0,0.5,0.2,0.5,0.5c0,0,0,0,0,0l0,0
		C-2996.9-4542.3-2997.1-4542.1-2997.3-4542.1z M-2997.3-4545.2c-0.3,0-0.5-0.2-0.5-0.5c0,0,0,0,0,0l0,0c0-0.3,0.2-0.5,0.5-0.5
		c0,0,0,0,0,0c0.3,0,0.5,0.2,0.5,0.5c0,0,0,0,0,0l0,0C-2996.9-4545.4-2997.1-4545.2-2997.3-4545.2z M-2997.3-4548.3
		c-0.3,0-0.5-0.2-0.5-0.5c0,0,0,0,0,0l0,0c0-0.3,0.2-0.5,0.5-0.5c0,0,0,0,0,0c0.3,0,0.5,0.2,0.5,0.5c0,0,0,0,0,0l0,0
		C-2996.9-4548.5-2997.1-4548.3-2997.3-4548.3z M-2997.3-4551.4c-0.3,0-0.5-0.2-0.5-0.5c0,0,0,0,0,0l0,0c0-0.3,0.2-0.5,0.5-0.5
		c0,0,0,0,0,0c0.3,0,0.5,0.2,0.5,0.5c0,0,0,0,0,0l0,0C-2996.9-4551.6-2997.1-4551.4-2997.3-4551.4z M-2997.3-4554.5
		c-0.3,0-0.5-0.2-0.5-0.5c0,0,0,0,0,0l0,0c0-0.3,0.2-0.5,0.5-0.5c0,0,0,0,0,0c0.3,0,0.5,0.2,0.5,0.5c0,0,0,0,0,0l0,0
		C-2996.9-4554.7-2997.1-4554.5-2997.3-4554.5z M-2997.3-4557.6c-0.3,0-0.5-0.2-0.5-0.5c0,0,0,0,0,0l0,0c0-0.3,0.2-0.5,0.5-0.5
		c0,0,0,0,0,0c0.3,0,0.5,0.2,0.5,0.5c0,0,0,0,0,0l0,0C-2996.9-4557.8-2997.1-4557.6-2997.3-4557.6z M-2997.3-4560.7
		c-0.3,0-0.5-0.2-0.5-0.5c0,0,0,0,0,0l0,0c0-0.3,0.2-0.5,0.5-0.5c0,0,0,0,0,0c0.3,0,0.5,0.2,0.5,0.5c0,0,0,0,0,0l0,0
		C-2996.9-4560.9-2997.1-4560.7-2997.3-4560.7z M-2997.3-4563.8c-0.3,0-0.5-0.2-0.5-0.5c0,0,0,0,0,0l0,0c0-0.3,0.2-0.5,0.5-0.5
		c0,0,0,0,0,0c0.3,0,0.5,0.2,0.5,0.5c0,0,0,0,0,0l0,0C-2996.9-4564-2997.1-4563.8-2997.3-4563.8z M-2997.3-4566.9
		c-0.3,0-0.5-0.2-0.5-0.5c0,0,0,0,0,0l0,0c0-0.3,0.2-0.5,0.5-0.5c0,0,0,0,0,0c0.3,0,0.5,0.2,0.5,0.5c0,0,0,0,0,0l0,0
		C-2996.9-4567.1-2997.1-4566.9-2997.3-4566.9z M-2997.3-4570c-0.3,0-0.5-0.2-0.5-0.5c0,0,0,0,0,0l0,0c0-0.3,0.2-0.5,0.5-0.5
		c0,0,0,0,0,0c0.3,0,0.5,0.2,0.5,0.5c0,0,0,0,0,0l0,0C-2996.9-4570.2-2997.1-4570-2997.3-4570z M-2997.3-4573.1
		c-0.3,0-0.5-0.2-0.5-0.5c0,0,0,0,0,0l0,0c0-0.3,0.2-0.5,0.5-0.5c0,0,0,0,0,0c0.3,0,0.5,0.2,0.5,0.5c0,0,0,0,0,0l0,0
		C-2996.9-4573.3-2997.1-4573.1-2997.3-4573.1z"/>
	<g id="Group_79" transform="translate(-3160.75 -4500.41)">
		<path id="Line_89" class="st3" d="M-51-63.5h-0.8v-4.1h0.8V-63.5z"/>
		<path id="Line_90" class="st3" d="M-49.3-65.1h-4.1v-0.8h4.1V-65.1z"/>
	</g>
	<g id="Group_154" transform="translate(-3049.528 -4605.081)">
		<path id="Path_219" class="st0" d="M34.1,11.5h-0.8v-77.9L3.8-57.5v7.2H2.9v-7.8l0.3-0.1l30.8-9.4V11.5z"/>
		<path id="Path_220" class="st0" d="M-39.3,20.5h-0.8v-67h64V7.2h-0.8v-52.9h-62.3L-39.3,20.5z"/>
		<path id="Line_257" class="st0" d="M-4.8,14.8h-0.8v-60.9h0.8V14.8z"/>
		<path id="Rectangle_212" class="st0" d="M-42.4-50.8h68.5v5.1h-68.5V-50.8z M25.3-50h-66.9v3.5h66.9V-50z"/>
		<path id="Path_221" class="st0" d="M-17.9,20.4h-0.8V12c0-1.5-1.2-2.8-2.8-2.8c0,0,0,0,0,0c-1.5,0-2.8,1.2-2.8,2.8c0,0,0,0,0,0
			v8.4h-0.8V12c0-2,1.6-3.6,3.6-3.7c2,0,3.6,1.6,3.7,3.6V20.4z"/>
		<path id="Rectangle_213" class="st0" d="M-28.9-42.4c2.4,0,4.3,2,4.3,4.4c0,0,0,0,0,0v8.1h-8.7V-38
			C-33.2-40.4-31.3-42.4-28.9-42.4z M-25.3-30.7V-38c0.1-2-1.5-3.6-3.5-3.7c-2-0.1-3.6,1.5-3.7,3.5v7.4L-25.3-30.7z"/>
		<path id="Path_222" class="st0" d="M12.4,20.4h-0.8V12c0-1.5-1.2-2.8-2.8-2.8c0,0,0,0,0,0c-1.5,0-2.8,1.2-2.8,2.8c0,0,0,0,0,0v8.4
			H5.1V12c0-2,1.6-3.6,3.6-3.7c2,0,3.6,1.6,3.7,3.6V20.4z"/>
		<g id="Group_149" transform="translate(17.919 74.001)">
			<path id="Line_258" class="st0" d="M-49.5-51.2h-0.8l0.1-13h0.8L-49.5-51.2z"/>
			<path id="Path_223" class="st0" d="M-49.9-67.6h0.2c1.4,0.1,2.4,1.3,2.3,2.7c0,0.1,0,0.2-0.1,0.3c-0.1,0.5,0,1.1,0.4,1.6
				c1.1,1.6,0.7,3.8-0.8,4.9c0,0,0,0,0,0c-0.6,0.4-1.3,0.6-2,0.6h-0.2c-1.8-0.1-3.3-1.6-3.3-3.4c0-0.8,0.2-1.5,0.7-2.2
				c0.3-0.4,0.5-1,0.4-1.6c0-0.2-0.1-0.3-0.1-0.4C-52.4-66.5-51.2-67.6-49.9-67.6z M-49.9-58.3c1.5,0,2.7-1.2,2.7-2.7
				c0-0.6-0.2-1.1-0.5-1.6c-0.5-0.6-0.6-1.4-0.5-2.2c0-0.1,0-0.3,0-0.4c0-0.9-0.7-1.6-1.6-1.6h-0.2c-0.9,0-1.7,0.8-1.7,1.7v0.3
				c0.1,0.7-0.1,1.5-0.5,2.1c-0.4,0.5-0.6,1.1-0.5,1.7c0.1,1.4,1.2,2.6,2.6,2.6L-49.9-58.3z"/>
			<path id="Path_224" class="st4" d="M-51.5-61.8c0.2,0.3,1.6,2.5,1.6,2.5"/>
			<path id="Path_224_-_Outline" class="st0" d="M-50.2-59.2c-0.1-0.1-1.4-2.2-1.6-2.5l0.7-0.4c0.1,0.2,1.1,1.7,1.6,2.4L-50.2-59.2z
				"/>
		</g>
		<g id="Group_150" transform="translate(0 64.657)">
			<path id="Line_259" class="st0" d="M-48-51.4l-0.2-13h0.8l0.2,13H-48z"/>
			<path id="Path_225" class="st4" d="M-49.3-62c0.2,0.3,1.6,2.4,1.6,2.4"/>
			<path id="Path_225_-_Outline" class="st0" d="M-48-59.3c-0.1-0.1-1.4-2.2-1.7-2.4l0.7-0.4c0.2,0.2,1.1,1.7,1.6,2.4L-48-59.3z"/>
			<path id="Path_226" class="st0" d="M-47.6-67.6c1.3-0.1,2.5,0.5,3.1,1.6c0.4,0.9,0.6,1.8,0.6,2.7c0,0.3,0.1,0.6,0.2,0.9
				c0.7,1.2,0.7,2.6,0.2,3.8c-0.4,0.8-1,1.4-1.8,1.8c-0.9,0.5-1.9,0.8-2.9,1c-0.3,0.1-0.5,0.1-0.8,0.1c-1.2,0-2.3-0.7-2.9-1.8
				c-0.7-1.1-1.2-2.3-1.4-3.5c-0.3-1.4,0-2.9,0.7-4.1c0.8-1.2,1.9-2,3.3-2.3C-48.7-67.5-48.1-67.6-47.6-67.6z M-48.9-56.4
				c0.2,0,0.4,0,0.6-0.1c2.2-0.5,3.6-1.3,4.1-2.4c0.4-1,0.3-2.1-0.2-3.1c-0.1-0.4-0.2-0.8-0.2-1.2c0-0.8-0.2-1.6-0.5-2.4
				c-0.5-0.8-1.4-1.3-2.4-1.2c-0.5,0-1,0.1-1.6,0.2c-1.2,0.2-2.2,1-2.8,2c-0.7,1-0.9,2.3-0.6,3.5c0.2,1.2,0.7,2.3,1.3,3.3
				C-50.7-57-49.9-56.5-48.9-56.4L-48.9-56.4z"/>
		</g>
		<g id="Group_151" transform="translate(73.824 78.686)">
			<path id="Path_227" class="st0" d="M-50.3-67.6h0.2c1.2,0.2,2,1.2,2,2.4c0,0.2,0,0.4-0.1,0.6c-0.1,0.6,0.1,1.1,0.3,1.7
				c0.3,0.6,0.5,1.3,0.5,2c0,0.9-0.3,1.8-0.9,2.5c-0.5,0.7-1.3,1.1-2.2,1.1h-0.2c-0.8-0.1-1.5-0.5-2-1.1c-0.5-0.7-0.8-1.5-0.8-2.4
				c0-0.8,0.2-1.5,0.6-2.2c0.3-0.5,0.4-1,0.3-1.6V-65c0-0.6,0.2-1.3,0.6-1.8C-51.6-67.3-51-67.6-50.3-67.6z M-50.3-58.2
				c1.4-0.2,2.3-1.4,2.2-2.7c0-0.6-0.2-1.1-0.4-1.7c-0.4-0.7-0.5-1.4-0.4-2.2c0-0.2,0.1-0.3,0-0.4c0-0.8-0.5-1.5-1.3-1.7h-0.1
				c-0.9,0.1-1.5,0.9-1.4,1.8v0.3c0.1,0.7,0,1.5-0.4,2.1c-0.3,0.5-0.5,1.1-0.5,1.8c-0.1,1.3,0.8,2.4,2.1,2.7H-50.3z"/>
			<path id="Line_260" class="st0" d="M-50-54.1h-0.8l0.1-11.1h0.8L-50-54.1z"/>
			<path id="Line_261" class="st0" d="M-50.1-60.2l-0.6-0.6l1.2-1.2l0.6,0.6L-50.1-60.2z"/>
			<path id="Path_228" class="st4" d="M-51.5-60.1c0.4,0.4,0.7,0.7,1.1,1"/>
			<path id="Path_228_-_Outline" class="st0" d="M-50.6-58.7c-0.4-0.3-0.9-0.7-1.2-1.1l0.7-0.4l0,0c0.3,0.4,0.7,0.7,1.1,0.9
				L-50.6-58.7z"/>
		</g>
		<path id="Rectangle_214" class="st0" d="M-33.3-30.7h21.6v3.8h-21.6V-30.7z M-12.5-30h-20v2.2h20V-30z"/>
		<path id="Rectangle_215" class="st0" d="M-21-40.7h6.8v5H-21V-40.7z M-15-40h-5.2v3.4h5.2V-40z"/>
		<path id="Line_262" class="st0" d="M-11.3-33.5h-23.3v-0.8h23.3L-11.3-33.5z"/>
		<path id="Line_263" class="st0" d="M-13.1-30.4H-14V-34h0.8V-30.4z"/>
		<path id="Line_264" class="st0" d="M-16.7-30.4h-0.8V-34h0.8V-30.4z"/>
		<path id="Line_265" class="st0" d="M-20.6-30.4h-0.8V-34h0.8V-30.4z"/>
		<path id="Line_266" class="st0" d="M-28.5-30.4h-0.8V-34h0.8L-28.5-30.4z"/>
		<path id="Rectangle_216" class="st0" d="M-20.8-20.8c2.4,0,4.3,2,4.3,4.4c0,0,0,0,0,0v8.1h-8.7v-8.1
			C-25.2-18.8-23.2-20.8-20.8-20.8z M-17.2-9.1v-7.2c0.1-2-1.5-3.6-3.5-3.7c-2-0.1-3.6,1.5-3.7,3.5v7.4L-17.2-9.1z"/>
		<path id="Rectangle_217" class="st0" d="M-33.3-9.1h21.6v3.8h-21.6V-9.1z M-12.5-8.3h-20v2.2h20V-8.3L-12.5-8.3z"/>
		<path id="Line_267" class="st0" d="M-11.3-11.9h-22v-0.8h22L-11.3-11.9z"/>
		<path id="Line_268" class="st0" d="M-13.1-8.7H-14v-3.6h0.8V-8.7z"/>
		<path id="Line_269" class="st0" d="M-26.4-8.7h-0.8v-3.6h0.8V-8.7z"/>
		<path id="Line_270" class="st0" d="M-19.6-8.7h-0.8v-3.6h0.8L-19.6-8.7z"/>
		<path id="Line_271" class="st0" d="M-31.3-8.7h-0.8v-3.6h0.8L-31.3-8.7z"/>
		<path id="Rectangle_218" class="st0" d="M-27-57.4h5v7.4h-5V-57.4z M-22.9-56.6h-3.4v5.8h3.4V-56.6z"/>
		<g id="Group_152" transform="translate(52.745 26.801)">
			<path id="Rectangle_219" class="st0" d="M-53.4-56.9h18.9v8.8h-18.9V-56.9z M-35.3-56h-17.3v7.2h17.3V-56z"/>
			<path id="Rectangle_220" class="st0" d="M-53.4-67.6h18.9v8.8h-18.9V-67.6z M-35.3-66.8h-17.3v7.2h17.3V-66.8z"/>
			
				<linearGradient id="Rectangle_221_1_" gradientUnits="userSpaceOnUse" x1="-490.4607" y1="587.0138" x2="-490.3977" y2="586.7718" gradientTransform="matrix(14.17 0 0 -4.292 5912.7461 1300.9863)">
				<stop  offset="0" style="stop-color:#FFCF00"/>
				<stop  offset="1" style="stop-color:#FFF1B2;stop-opacity:0.149"/>
			</linearGradient>
			<rect id="Rectangle_221" x="-51.1" y="-65.3" class="st5" width="14.2" height="4.3"/>
			
				<linearGradient id="Rectangle_222_1_" gradientUnits="userSpaceOnUse" x1="-491.0634" y1="589.3624" x2="-491.0003" y2="589.1204" gradientTransform="matrix(14.17 0 0 -4.292 5912.7461 1311.7433)">
				<stop  offset="0" style="stop-color:#FFCF00"/>
				<stop  offset="1" style="stop-color:#FFF1B2;stop-opacity:0.18"/>
			</linearGradient>
			<rect id="Rectangle_222" x="-51.1" y="-54.6" class="st6" width="14.2" height="4.3"/>
		</g>
		<g id="Group_153" transform="translate(52.745 49.424)">
			<path id="Rectangle_223" class="st0" d="M-53.4-56.9h18.9v8.8h-18.9V-56.9z M-35.3-56h-17.3v7.2h17.3V-56z"/>
			<path id="Rectangle_224" class="st0" d="M-53.4-67.6h18.9v8.8h-18.9V-67.6z M-35.3-66.8h-17.3v7.2h17.3V-66.8z"/>
		</g>
	</g>
	<g id="Group_164" transform="translate(-3067.691 -4422.368)">
		<path id="Ellipse_39" class="st0" d="M-35-63.6c2.5,0,4.5,2,4.5,4.5s-2,4.5-4.5,4.5s-4.5-2-4.5-4.5c0-2.5,1.9-4.5,4.4-4.5
			C-35.1-63.6-35-63.6-35-63.6z M-35-55.3c2,0,3.7-1.6,3.7-3.7c0,0,0,0,0,0c0-2-1.6-3.7-3.7-3.7c0,0,0,0,0,0c-2,0-3.7,1.6-3.7,3.7
			c0,0,0,0,0,0l0,0C-38.7-57-37-55.3-35-55.3L-35-55.3z"/>
		<path id="Ellipse_40" class="st0" d="M-48.9-63.6c2.5,0,4.5,2,4.5,4.5s-2,4.5-4.5,4.5s-4.5-2-4.5-4.5c0-2.5,1.9-4.5,4.4-4.5
			C-49-63.6-49-63.6-48.9-63.6z M-48.9-55.3c2,0,3.7-1.6,3.7-3.7c0,0,0,0,0,0c0-2-1.6-3.7-3.7-3.7c0,0,0,0,0,0c-2,0-3.7,1.6-3.7,3.7
			c0,0,0,0,0,0l0,0C-52.7-57-51-55.3-48.9-55.3L-48.9-55.3z"/>
		<path id="Ellipse_41" class="st0" d="M-35-60.2c0.6,0,1.1,0.5,1.1,1.1c0,0.6-0.5,1.1-1.1,1.1c-0.6,0-1.1-0.5-1.1-1.1
			C-36.1-59.7-35.6-60.2-35-60.2z M-35-58.7c0.2,0,0.3-0.1,0.3-0.3c0,0,0,0,0,0c0-0.2-0.1-0.3-0.3-0.3c0,0,0,0,0,0
			c-0.2,0-0.3,0.1-0.3,0.3C-35.3-58.9-35.2-58.7-35-58.7z"/>
		<path id="Ellipse_42" class="st0" d="M-49.1-60.2c0.6,0,1.1,0.5,1.1,1.1c0,0.6-0.5,1.1-1.1,1.1c-0.6,0-1.1-0.5-1.1-1.1
			C-50.2-59.7-49.7-60.2-49.1-60.2z M-49.1-58.7c0.2,0,0.3-0.1,0.3-0.3c0,0,0,0,0,0c0-0.2-0.1-0.3-0.3-0.3c0,0,0,0,0,0
			c-0.2,0-0.3,0.1-0.3,0.3C-49.4-58.9-49.3-58.7-49.1-58.7C-49.1-58.7-49.1-58.7-49.1-58.7z"/>
		<path id="Ellipse_43" class="st0" d="M-42-60.6c0.9,0,1.5,0.7,1.6,1.6c0,0.9-0.7,1.5-1.6,1.6c-0.9,0-1.5-0.7-1.6-1.6l0,0
			C-43.6-59.9-42.9-60.6-42-60.6C-42.1-60.6-42-60.6-42-60.6z M-42-58.3c0.4,0,0.7-0.3,0.7-0.7c0,0,0,0,0,0c0-0.4-0.3-0.7-0.7-0.7
			c0,0,0,0,0,0c-0.4,0-0.7,0.3-0.7,0.7c0,0,0,0,0,0l0,0C-42.7-58.6-42.4-58.3-42-58.3z"/>
		<path id="Line_298" class="st0" d="M-35.8-58.7h-5.2v-0.8h5.2V-58.7z"/>
		<path id="Path_238" class="st0" d="M-35.6-59.4c-0.1-0.1-0.2-0.1-2.2-2.7c-0.7-1-1.5-2-1.8-2.4h-6.7l-2.1,4.9l-0.7-0.3l2.4-5.4
			h7.7l0.1,0.2c1.3,1.8,3.6,4.8,3.8,5.1l-0.1-0.1L-35.6-59.4z"/>
		<path id="Line_299" class="st0" d="M-41.2-60l-0.7-0.4l3.3-7l0.7,0.4L-41.2-60z"/>
		<path id="Path_239" class="st0" d="M-43-59.8l-4-5.1l1-1.9h-1.6c-0.2,0-0.5,0.1-0.6,0.3c-0.2,0.3-0.2,0.7,0,1l0.3,0.3l-0.6,0.5
			l-0.3-0.3c-0.5-0.6-0.5-1.4-0.1-2c0.3-0.4,0.8-0.6,1.3-0.6h2.9l-1.4,2.6l3.7,4.7L-43-59.8z"/>
		<path id="Line_300" class="st0" d="M-36.4-66.8h-3.7v-0.8h3.7V-66.8z"/>
	</g>
	<g id="Group_171" transform="translate(-2913.41 -4485.933)">
		<path id="Path_240" class="st0" d="M36.2-48.4H19.6l-0.1-0.1L-18-67.6h16.7l0.1,0.1L36.2-48.4z M19.7-49.2h13.1L-1.6-66.7h-13.1
			L19.7-49.2z"/>
		<path id="Line_301" class="st0" d="M-53.1-48.4l-0.4-0.7l36.4-18.5l0.4,0.7L-53.1-48.4z"/>
		<path id="Line_302" class="st0" d="M16.5-3.9h-0.8v-36.8h0.8L16.5-3.9z"/>
		<path id="Line_303" class="st0" d="M-46.9-11h-0.8v-34.2h0.8V-11z"/>
		<path id="Line_304" class="st0" d="M30.1-11.4h-0.8v-33.8h0.8V-11.4z"/>
		<g id="Group_166" transform="translate(23.125 13.956)">
			<path id="Rectangle_237" class="st0" d="M-53.4-67.6h28.1v17h-28.1V-67.6z M-26.1-66.8h-26.5v15.4h26.5V-66.8z"/>
		</g>
		<g id="Group_170" transform="translate(35.022 43.113)">
			<path id="Rectangle_239" class="st0" d="M-46.4-67.6h12.3v12.5h-12.3V-67.6z M-35-66.7h-10.7v10.9H-35V-66.7z"/>
			
				<linearGradient id="Rectangle_240_1_" gradientUnits="userSpaceOnUse" x1="-505.7196" y1="325.0712" x2="-505.7546" y2="324.9242" gradientTransform="matrix(7.188 0 0 -7.085 3800.3745 1390.9878)">
				<stop  offset="0" style="stop-color:#FFCF00"/>
				<stop  offset="1" style="stop-color:#FFF1B2;stop-opacity:0"/>
			</linearGradient>
			<rect id="Rectangle_240" x="-43.9" y="-64.8" class="st7" width="7.2" height="7.1"/>
			<g id="Group_168" transform="translate(18.802)">
				<path id="Path_242" class="st0" d="M-46-55.1h-7.4v-0.8h6.6v-10.9h-6.5v-0.8h7.3L-46-55.1z"/>
				<g id="Group_167" transform="translate(1.935 1.986)">
					<path id="Line_306" class="st0" d="M-50.1-66.8h-3.4v-0.8h3.4V-66.8z"/>
					<path id="Line_307" class="st0" d="M-50.1-65.2h-3.4v-0.8h3.4V-65.2z"/>
					<path id="Line_308" class="st0" d="M-50.1-63.7h-3.4v-0.8h3.4V-63.7z"/>
					<path id="Line_309" class="st0" d="M-50.1-62.1h-3.4V-63h3.4V-62.1z"/>
					<path id="Line_310" class="st0" d="M-50.1-60.5h-3.4v-0.8h3.4V-60.5z"/>
					<path id="Line_311" class="st0" d="M-50.1-59h-3.4v-0.8h3.4V-59z"/>
				</g>
			</g>
			<path id="Path_243" class="st0" d="M-46-55.1h-7.4v-12.5h7.3v0.8h-6.5v10.9h6.6L-46-55.1z"/>
			<g id="Group_169" transform="translate(2.194 1.986)">
				<path id="Line_312" class="st0" d="M-50.1-66.8h-3.4v-0.8h3.4V-66.8z"/>
				<path id="Line_313" class="st0" d="M-50.1-65.2h-3.4v-0.8h3.4V-65.2z"/>
				<path id="Line_314" class="st0" d="M-50.1-63.7h-3.4v-0.8h3.4V-63.7z"/>
				<path id="Line_315" class="st0" d="M-50.1-62.1h-3.4V-63h3.4V-62.1z"/>
				<path id="Line_316" class="st0" d="M-50.1-60.5h-3.4v-0.8h3.4V-60.5z"/>
				<path id="Line_317" class="st0" d="M-50.1-59h-3.4v-0.8h3.4V-59z"/>
			</g>
		</g>
		<path id="Path_244" class="st0" d="M-25.7-6.5h-0.8v-16.6h-9.4v16.6h-0.8V-24h11L-25.7-6.5L-25.7-6.5z"/>
	</g>
	<g id="Group_174" transform="translate(-2955.454 -4569.405)">
		<path id="Path_246" class="st0" d="M72.2,2.6H57.5l0.1-0.5l6.1-35.9c0.1-0.6,0.7-1,1.3-0.9c0,0,0,0,0.1,0c0.5,0.1,0.8,0.5,0.9,0.9
			L72.2,2.6z M58.5,1.9h12.8l-6.1-35.5c0-0.2-0.2-0.3-0.4-0.3c-0.1,0-0.3,0.2-0.3,0.3L58.5,1.9z"/>
		<path id="Line_318" class="st0" d="M65.2,16.6h-0.8V-4.8h0.8V16.6z"/>
		<path id="Path_247" class="st0" d="M78.3-42.1H68l4.2-24.8c0.1-0.5,0.6-0.8,1-0.7c0,0,0,0,0,0c0.4,0.1,0.7,0.4,0.7,0.7L78.3-42.1z
			 M69-42.8h8.4l-4.1-23.9c0-0.1-0.1-0.1-0.2-0.1c-0.1,0-0.1,0-0.1,0.1L69-42.8z"/>
		<path id="Line_319" class="st0" d="M73.5-36.9h-0.8v-10.2h0.8V-36.9z"/>
		<path id="Path_248" class="st0" d="M-46.6-21.7h-0.8v-27.6l0.4-0.1l101.5-9.5v35.2h-0.8v-34.3l-100.2,9.4L-46.6-21.7z"/>
		<path id="Rectangle_241" class="st0" d="M-28.7-36.3c2.2,0,3.9,1.8,3.9,3.9c0,0,0,0,0,0v9.8h-7.9v-9.8
			C-32.7-34.6-30.9-36.3-28.7-36.3C-28.7-36.3-28.7-36.3-28.7-36.3z M-25.6-23.4v-9c0-1.7-1.4-3.1-3.2-3.2l0,0
			c-1.7,0-3.1,1.4-3.2,3.2v9H-25.6z"/>
		<path id="Rectangle_242" class="st0" d="M25.8-48.2h12.1c4.3,0,7.8,3.5,7.8,7.8v8H18v-8c0-4.3,3.4-7.8,7.6-7.8
			C25.7-48.2,25.7-48.2,25.8-48.2z M44.8-33.2v-7.2c0-3.9-3.1-7-7-7H25.8c-3.9,0-7,3.1-7,7v7.2H44.8z"/>
		<g id="Group_172" transform="translate(55.104 33.531)">
			<path id="Line_320" class="st0" d="M-48-51.4l-0.2-13h0.8l0.2,13L-48-51.4z"/>
			<path id="Path_249" class="st4" d="M-49.3-62c0.2,0.3,1.7,2.4,1.7,2.4"/>
			<path id="Path_249_-_Outline" class="st0" d="M-48-59.3c-0.1-0.1-1.4-2.2-1.7-2.5l0.7-0.4c0.2,0.2,1.1,1.7,1.6,2.4L-48-59.3z"/>
			<path id="Path_250" class="st0" d="M-47.5-67.6c1.3-0.1,2.5,0.5,3.1,1.6c0.4,0.9,0.6,1.8,0.6,2.7c0,0.3,0.1,0.7,0.2,1
				c0.7,1.2,0.7,2.6,0.2,3.8c-0.4,0.8-1,1.4-1.8,1.8c-0.9,0.5-1.9,0.8-2.9,1c-0.3,0.1-0.5,0.1-0.8,0.1c-1.2,0-2.3-0.7-2.9-1.8
				c-0.7-1.1-1.2-2.3-1.4-3.6c-0.3-1.4-0.1-2.9,0.7-4.1c0.7-1.2,1.9-2,3.3-2.3C-48.7-67.6-48.1-67.6-47.5-67.6z M-48.9-56.4
				c0.2,0,0.4,0,0.6-0.1c2.2-0.5,3.6-1.3,4.1-2.4c0.4-1,0.3-2.1-0.2-3.1c-0.1-0.4-0.2-0.8-0.2-1.2c0-0.8-0.2-1.7-0.5-2.4
				c-0.5-0.8-1.4-1.3-2.4-1.2c-0.5,0-1,0.1-1.6,0.2c-1.2,0.3-2.2,1-2.8,2c-0.7,1.1-0.9,2.3-0.6,3.6c0.2,1.2,0.7,2.3,1.3,3.3
				C-50.7-57-49.9-56.5-48.9-56.4L-48.9-56.4z"/>
		</g>
		<g id="Group_173" transform="translate(39.19 26.55)">
			<path id="Line_321" class="st0" d="M-46.8-40.6h-0.8l0.3-22.5h0.8L-46.8-40.6z"/>
			<path id="Path_251" class="st4" d="M-44.7-59.8c-0.3,0.4-2.3,3.5-2.3,3.5"/>
			<path id="Path_251_-_Outline" class="st0" d="M-46.7-56l-0.7-0.5c0-0.1,2.1-3.2,2.3-3.5l0.7,0.4C-44.6-59.1-46.6-56.1-46.7-56z"
				/>
			<path id="Path_252" class="st0" d="M-47.2-67.6L-47.2-67.6c0.8,0,1.6,0.1,2.4,0.3c1.9,0.4,3.6,1.6,4.7,3.3c1.1,1.7,1.4,3.8,1,5.8
				c-0.4,1.8-1,3.5-2,5.1c-0.8,1.5-2.4,2.4-4.1,2.4c-0.4,0-0.7,0-1.1-0.1c-1.4-0.3-2.8-0.8-4.1-1.4c-1.1-0.5-2-1.4-2.5-2.5
				c-0.7-1.7-0.6-3.7,0.3-5.3c0.1-0.5,0.2-1,0.2-1.4c0-1.3,0.3-2.7,0.9-3.9C-50.7-66.9-49-67.8-47.2-67.6z M-45.3-51.5
				c1.4-0.1,2.7-0.9,3.4-2.1c0.9-1.5,1.6-3.1,1.9-4.8c0.4-1.8,0.1-3.7-0.9-5.2c-0.9-1.5-2.5-2.6-4.2-2.9c-0.7-0.2-1.5-0.3-2.3-0.3
				c-1.5-0.2-2.9,0.5-3.6,1.8c-0.5,1.1-0.8,2.3-0.8,3.6c0,0.6-0.1,1.2-0.3,1.7c-0.4,0.8-0.6,1.7-0.7,2.6c0,0.7,0.1,1.4,0.4,2
				c0.8,1.6,2.8,2.8,6.1,3.5C-45.9-51.6-45.6-51.5-45.3-51.5L-45.3-51.5z"/>
		</g>
		<path id="Path_253" class="st0" d="M41.9-18.6h-0.8v-2.7H24.8v2.7H24v-3.5h17.9L41.9-18.6z"/>
		<path id="Path_254" class="st0" d="M40.7-21.5h-0.8v-3.8H26v3.8h-0.8v-4.6h15.5L40.7-21.5z"/>
		<path id="Line_322" class="st0" d="M28.5-21.7h-0.8v-3.7h0.8V-21.7z"/>
		<path id="Line_323" class="st0" d="M38.3-21.7h-0.8v-3.7h0.8V-21.7z"/>
		<path id="Line_324" class="st0" d="M33.4-21.7h-0.8v-3.7h0.8V-21.7z"/>
		<path id="Line_325" class="st0" d="M31-21.7h-0.8v-3.7H31V-21.7z"/>
		<path id="Line_326" class="st0" d="M35.9-21.7H35v-3.7h0.8V-21.7z"/>
		<path id="Line_327" class="st0" d="M26.9-19.8h-0.8v-1.8h0.8V-19.8z"/>
		<path id="Line_328" class="st0" d="M39.6-19.8h-0.8v-1.8h0.8V-19.8z"/>
		<path id="Line_329" class="st0" d="M-53.3-54.8l-0.1-0.8L56.4-67.1l0.1,0.8L-53.3-54.8z"/>
		<path id="Path_256" class="st0" d="M-17.2-16h-0.8v-6.6H-40v6.6h-0.8v-7.4h23.5L-17.2-16z"/>
		<path id="Path_265" class="st0" d="M-17.2-19.1h-23.6v-0.8h23.6V-19.1z"/>
		
			<linearGradient id="Rectangle_243_1_" gradientUnits="userSpaceOnUse" x1="-462.9494" y1="477.2658" x2="-462.9494" y2="477.3248" gradientTransform="matrix(19.4451 0 0 -8.74 9033.8633 2915.0017)">
			<stop  offset="0" style="stop-color:#FFCF00"/>
			<stop  offset="1" style="stop-color:#FFF1B2;stop-opacity:4.300000e-02"/>
		</linearGradient>
		<path id="Rectangle_243" class="st8" d="M26.9-44.7h9.8c2.7,0,4.8,2.2,4.8,4.8l0,0v3.9H22.1v-3.9C22.1-42.5,24.2-44.7,26.9-44.7
			L26.9-44.7z"/>
		<path id="Rectangle_244" class="st0" d="M-34.6-44.5h11.6c2.8,0,5,2.2,5,5v0.4h-21.7v-0.4C-39.6-42.3-37.3-44.5-34.6-44.5z
			 M-18.7-39.9c-0.2-2.2-2-3.8-4.2-3.8h-11.6c-2.2,0-4,1.7-4.2,3.8H-18.7z"/>
		<path id="Line_331" class="st0" d="M-36.5-23h-0.8v-16.5h0.8L-36.5-23z"/>
		<path id="Line_332" class="st0" d="M-20.6-23h-0.8v-16.5h0.8L-20.6-23z"/>
	</g>
	<g id="Group_176" transform="translate(-3109.024 -4442.861)">
		<path id="Path_258-2" class="st0" d="M-41.8-54.9l-6.4-9.4h12.8L-41.8-54.9z M-46.7-63.5l4.9,7.2l4.9-7.2H-46.7z"/>
		<path id="Line_333-2" class="st0" d="M-31.4-63.5h-20.8v-0.8h20.8V-63.5z"/>
		<path id="Line_334-2" class="st0" d="M-30.1-65.2h-23.4V-66h23.4V-65.2z"/>
		<path id="Line_335-2" class="st0" d="M-50.7-65.6h-0.8v-2.1h0.8V-65.6z"/>
		<path id="Line_336-2" class="st0" d="M-49.4-65.6h-0.8v-2.1h0.8V-65.6z"/>
		<path id="Line_337-2" class="st0" d="M-33.7-65.6h-0.8v-2.1h0.8V-65.6z"/>
		<path id="Line_338-2" class="st0" d="M-32.4-65.6h-0.8v-2.1h0.8V-65.6z"/>
		<path id="Path_260" class="st1" d="M-41.8-36.6c-0.3,0-0.5-0.2-0.5-0.5c0,0,0,0,0,0l0,0c0-0.3,0.2-0.5,0.5-0.5c0,0,0,0,0,0
			c0.3,0,0.5,0.2,0.5,0.5c0,0,0,0,0,0l0,0C-41.3-36.9-41.5-36.6-41.8-36.6C-41.8-36.6-41.8-36.6-41.8-36.6z M-41.8-39.7
			c-0.3,0-0.5-0.2-0.5-0.5c0,0,0,0,0,0l0,0c0-0.3,0.2-0.5,0.5-0.5c0,0,0,0,0,0c0.3,0,0.5,0.2,0.5,0.5c0,0,0,0,0,0l0,0
			C-41.3-40-41.5-39.7-41.8-39.7C-41.8-39.7-41.8-39.7-41.8-39.7z M-41.8-42.8c-0.3,0-0.5-0.2-0.5-0.5c0,0,0,0,0,0l0,0
			c0-0.3,0.2-0.5,0.5-0.5c0,0,0,0,0,0c0.3,0,0.5,0.2,0.5,0.5c0,0,0,0,0,0l0,0C-41.3-43.1-41.5-42.8-41.8-42.8
			C-41.8-42.8-41.8-42.8-41.8-42.8z M-41.8-45.9c-0.3,0-0.5-0.2-0.5-0.5c0,0,0,0,0,0l0,0c0-0.3,0.2-0.5,0.5-0.5c0,0,0,0,0,0
			c0.3,0,0.5,0.2,0.5,0.5c0,0,0,0,0,0l0,0C-41.3-46.2-41.5-45.9-41.8-45.9C-41.8-45.9-41.8-45.9-41.8-45.9z M-41.8-49
			c-0.3,0-0.5-0.2-0.5-0.5c0,0,0,0,0,0l0,0c0-0.3,0.2-0.5,0.5-0.5c0,0,0,0,0,0c0.3,0,0.5,0.2,0.5,0.5c0,0,0,0,0,0l0,0
			C-41.3-49.3-41.5-49-41.8-49C-41.8-49-41.8-49-41.8-49z M-41.8-52.1c-0.3,0-0.5-0.2-0.5-0.5c0,0,0,0,0,0l0,0
			c0-0.3,0.2-0.5,0.5-0.5c0,0,0,0,0,0c0.3,0,0.5,0.2,0.5,0.5c0,0,0,0,0,0l0,0C-41.3-52.4-41.5-52.1-41.8-52.1
			C-41.8-52.1-41.8-52.1-41.8-52.1z"/>
	</g>
	<path id="Path_261" class="st1" d="M-3133.7-4507.9c0-0.3,0.2-0.5,0.5-0.5c0,0,0,0,0,0l0,0c0.3,0,0.5,0.2,0.5,0.5c0,0,0,0,0,0
		c0,0.3-0.2,0.5-0.5,0.5c0,0,0,0,0,0l0,0C-3133.5-4507.4-3133.7-4507.6-3133.7-4507.9C-3133.7-4507.9-3133.7-4507.9-3133.7-4507.9z
		 M-3130.6-4507.9c0-0.3,0.2-0.5,0.5-0.5c0,0,0,0,0,0l0,0c0.3,0,0.5,0.2,0.5,0.5c0,0,0,0,0,0c0,0.3-0.2,0.5-0.5,0.5c0,0,0,0,0,0l0,0
		C-3130.4-4507.4-3130.6-4507.6-3130.6-4507.9C-3130.6-4507.9-3130.6-4507.9-3130.6-4507.9z M-3127.5-4507.9c0-0.3,0.2-0.5,0.5-0.5
		c0,0,0,0,0,0l0,0c0.3,0,0.5,0.2,0.5,0.5c0,0,0,0,0,0c0,0.3-0.2,0.5-0.5,0.5c0,0,0,0,0,0l0,0
		C-3127.3-4507.4-3127.5-4507.6-3127.5-4507.9L-3127.5-4507.9z M-3124.4-4507.9c0-0.3,0.2-0.5,0.5-0.5c0,0,0,0,0,0l0,0
		c0.3,0,0.5,0.2,0.5,0.5c0,0,0,0,0,0c0,0.3-0.2,0.5-0.5,0.5c0,0,0,0,0,0l0,0C-3124.2-4507.4-3124.4-4507.6-3124.4-4507.9
		C-3124.4-4507.9-3124.4-4507.9-3124.4-4507.9z M-3121.3-4507.9c0-0.3,0.2-0.5,0.5-0.5c0,0,0,0,0,0l0,0c0.3,0,0.5,0.2,0.5,0.5
		c0,0,0,0,0,0c0,0.3-0.2,0.5-0.5,0.5c0,0,0,0,0,0l0,0C-3121.1-4507.4-3121.3-4507.6-3121.3-4507.9
		C-3121.3-4507.9-3121.3-4507.9-3121.3-4507.9z M-3118.2-4507.9c0-0.3,0.2-0.5,0.5-0.5c0,0,0,0,0,0l0,0c0.3,0,0.5,0.2,0.5,0.5
		c0,0,0,0,0,0c0,0.3-0.2,0.5-0.5,0.5c0,0,0,0,0,0l0,0C-3118-4507.4-3118.2-4507.6-3118.2-4507.9
		C-3118.2-4507.9-3118.2-4507.9-3118.2-4507.9z M-3115.1-4507.9c0-0.3,0.2-0.5,0.5-0.5c0,0,0,0,0,0l0,0c0.3,0,0.5,0.2,0.5,0.5
		c0,0,0,0,0,0c0,0.3-0.2,0.5-0.5,0.5c0,0,0,0,0,0l0,0C-3114.9-4507.4-3115.1-4507.6-3115.1-4507.9
		C-3115.1-4507.9-3115.1-4507.9-3115.1-4507.9z M-3112-4507.9c0-0.3,0.2-0.5,0.5-0.5c0,0,0,0,0,0l0,0c0.3,0,0.5,0.2,0.5,0.5
		c0,0,0,0,0,0c0,0.3-0.2,0.5-0.5,0.5c0,0,0,0,0,0l0,0C-3111.8-4507.4-3112-4507.6-3112-4507.9C-3112-4507.9-3112-4507.9-3112-4507.9
		z"/>
	<path id="Path_264" class="st1" d="M-2994.4-4573.5c0-0.3,0.2-0.5,0.5-0.5c0,0,0,0,0,0l0,0c0.3,0,0.5,0.2,0.5,0.5c0,0,0,0,0,0
		c0,0.3-0.2,0.5-0.5,0.5c0,0,0,0,0,0l0,0C-2994.2-4573.1-2994.4-4573.3-2994.4-4573.5C-2994.4-4573.5-2994.4-4573.5-2994.4-4573.5z
		 M-2991.3-4573.5c0-0.3,0.2-0.5,0.5-0.5c0,0,0,0,0,0l0,0c0.3,0,0.5,0.2,0.5,0.5c0,0,0,0,0,0c0,0.3-0.2,0.5-0.5,0.5c0,0,0,0,0,0l0,0
		C-2991.1-4573.1-2991.3-4573.3-2991.3-4573.5C-2991.3-4573.5-2991.3-4573.5-2991.3-4573.5z M-2988.2-4573.5c0-0.3,0.2-0.5,0.5-0.5
		c0,0,0,0,0,0l0,0c0.3,0,0.5,0.2,0.5,0.5c0,0,0,0,0,0c0,0.3-0.2,0.5-0.5,0.5c0,0,0,0,0,0l0,0
		C-2988-4573.1-2988.2-4573.3-2988.2-4573.5L-2988.2-4573.5z M-2985.1-4573.5c0-0.3,0.2-0.5,0.5-0.5c0,0,0,0,0,0l0,0
		c0.3,0,0.5,0.2,0.5,0.5c0,0,0,0,0,0l0,0c0,0.3-0.2,0.5-0.5,0.5c0,0,0,0,0,0l0,0C-2984.9-4573.1-2985.1-4573.3-2985.1-4573.5
		C-2985.1-4573.5-2985.1-4573.5-2985.1-4573.5z M-2982-4573.5c0-0.3,0.2-0.5,0.5-0.5c0,0,0,0,0,0l0,0c0.3,0,0.5,0.2,0.5,0.5
		c0,0,0,0,0,0l0,0c0,0.3-0.2,0.5-0.5,0.5c0,0,0,0,0,0l0,0C-2981.8-4573.1-2982-4573.3-2982-4573.5L-2982-4573.5z M-2978.9-4573.5
		c0-0.3,0.2-0.5,0.5-0.5c0,0,0,0,0,0l0,0c0.3,0,0.5,0.2,0.5,0.5c0,0,0,0,0,0l0,0c0,0.3-0.2,0.5-0.5,0.5c0,0,0,0,0,0l0,0
		C-2978.7-4573.1-2978.9-4573.3-2978.9-4573.5C-2978.9-4573.5-2978.9-4573.5-2978.9-4573.5z M-2975.8-4573.5c0-0.3,0.2-0.5,0.5-0.5
		c0,0,0,0,0,0l0,0c0.3,0,0.5,0.2,0.5,0.5c0,0,0,0,0,0l0,0c0,0.3-0.2,0.5-0.5,0.5c0,0,0,0,0,0l0,0
		C-2975.6-4573.1-2975.8-4573.3-2975.8-4573.5L-2975.8-4573.5z M-2972.7-4573.5c0-0.3,0.2-0.5,0.5-0.5c0,0,0,0,0,0l0,0
		c0.3,0,0.5,0.2,0.5,0.5c0,0,0,0,0,0l0,0c0,0.3-0.2,0.5-0.5,0.5c0,0,0,0,0,0l0,0C-2972.5-4573.1-2972.7-4573.3-2972.7-4573.5
		C-2972.7-4573.5-2972.7-4573.5-2972.7-4573.5z M-2969.6-4573.5c0-0.3,0.2-0.5,0.5-0.5c0,0,0,0,0,0l0,0c0.3,0,0.5,0.2,0.5,0.5
		c0,0,0,0,0,0l0,0c0,0.3-0.2,0.5-0.5,0.5c0,0,0,0,0,0l0,0C-2969.4-4573.1-2969.6-4573.3-2969.6-4573.5
		C-2969.6-4573.5-2969.6-4573.5-2969.6-4573.5z M-2966.5-4573.5c0-0.3,0.2-0.5,0.5-0.5c0,0,0,0,0,0l0,0c0.3,0,0.5,0.2,0.5,0.5
		c0,0,0,0,0,0l0,0c0,0.3-0.2,0.5-0.5,0.5c0,0,0,0,0,0l0,0C-2966.3-4573.1-2966.5-4573.3-2966.5-4573.5
		C-2966.5-4573.5-2966.5-4573.5-2966.5-4573.5z M-2963.3-4573.5c0-0.3,0.2-0.5,0.5-0.5c0,0,0,0,0,0l0,0c0.3,0,0.5,0.2,0.5,0.5
		c0,0,0,0,0,0l0,0c0,0.3-0.2,0.5-0.5,0.5c0,0,0,0,0,0l0,0C-2963.1-4573.1-2963.3-4573.3-2963.3-4573.5
		C-2963.3-4573.5-2963.3-4573.5-2963.3-4573.5z M-2960.2-4573.5c0-0.3,0.2-0.5,0.5-0.5c0,0,0,0,0,0l0,0c0.3,0,0.5,0.2,0.5,0.5
		c0,0,0,0,0,0l0,0c0,0.3-0.2,0.5-0.5,0.5c0,0,0,0,0,0l0,0C-2960-4573.1-2960.2-4573.3-2960.2-4573.5
		C-2960.2-4573.5-2960.2-4573.5-2960.2-4573.5z M-2957.1-4573.5c0-0.3,0.2-0.5,0.5-0.5c0,0,0,0,0,0l0,0c0.3,0,0.5,0.2,0.5,0.5
		c0,0,0,0,0,0l0,0c0,0.3-0.2,0.5-0.5,0.5c0,0,0,0,0,0l0,0C-2956.9-4573.1-2957.1-4573.3-2957.1-4573.5
		C-2957.1-4573.5-2957.1-4573.5-2957.1-4573.5z M-2954-4573.5c0-0.3,0.2-0.5,0.5-0.5c0,0,0,0,0,0l0,0c0.3,0,0.5,0.2,0.5,0.5
		c0,0,0,0,0,0l0,0c0,0.3-0.2,0.5-0.5,0.5c0,0,0,0,0,0l0,0C-2953.8-4573.1-2954-4573.3-2954-4573.5
		C-2954-4573.5-2954-4573.5-2954-4573.5z M-2950.9-4573.5c0-0.3,0.2-0.5,0.5-0.5c0,0,0,0,0,0l0,0c0.3,0,0.5,0.2,0.5,0.5c0,0,0,0,0,0
		l0,0c0,0.3-0.2,0.5-0.5,0.5c0,0,0,0,0,0l0,0C-2950.7-4573.1-2950.9-4573.3-2950.9-4573.5
		C-2950.9-4573.5-2950.9-4573.5-2950.9-4573.5z M-2947.8-4573.5c0-0.3,0.2-0.5,0.5-0.5c0,0,0,0,0,0l0,0c0.3,0,0.5,0.2,0.5,0.5
		c0,0,0,0,0,0l0,0c0,0.3-0.2,0.5-0.5,0.5c0,0,0,0,0,0l0,0C-2947.6-4573.1-2947.8-4573.3-2947.8-4573.5
		C-2947.8-4573.5-2947.8-4573.5-2947.8-4573.5z M-2944.7-4573.5c0-0.3,0.2-0.5,0.5-0.5c0,0,0,0,0,0l0,0c0.3,0,0.5,0.2,0.5,0.5
		c0,0,0,0,0,0l0,0c0,0.3-0.2,0.5-0.5,0.5c0,0,0,0,0,0l0,0C-2944.5-4573.1-2944.7-4573.3-2944.7-4573.5
		C-2944.7-4573.5-2944.7-4573.5-2944.7-4573.5z M-2941.6-4573.5c0-0.3,0.2-0.5,0.5-0.5c0,0,0,0,0,0l0,0c0.3,0,0.5,0.2,0.5,0.5
		c0,0,0,0,0,0l0,0c0,0.3-0.2,0.5-0.5,0.5c0,0,0,0,0,0l0,0C-2941.4-4573.1-2941.6-4573.3-2941.6-4573.5
		C-2941.6-4573.5-2941.6-4573.5-2941.6-4573.5z M-2938.5-4573.5c0-0.3,0.2-0.5,0.5-0.5c0,0,0,0,0,0l0,0c0.3,0,0.5,0.2,0.5,0.5
		c0,0,0,0,0,0l0,0c0,0.3-0.2,0.5-0.5,0.5c0,0,0,0,0,0l0,0C-2938.3-4573.1-2938.5-4573.3-2938.5-4573.5
		C-2938.5-4573.5-2938.5-4573.5-2938.5-4573.5z M-2935.4-4573.5c0-0.3,0.2-0.5,0.5-0.5c0,0,0,0,0,0l0,0c0.3,0,0.5,0.2,0.5,0.5
		c0,0,0,0,0,0c0,0.3-0.2,0.5-0.5,0.5c0,0,0,0,0,0l0,0C-2935.2-4573.1-2935.4-4573.3-2935.4-4573.5
		C-2935.4-4573.5-2935.4-4573.5-2935.4-4573.5z M-2932.3-4573.5c0-0.3,0.2-0.5,0.5-0.5c0,0,0,0,0,0l0,0c0.3,0,0.5,0.2,0.5,0.5
		c0,0,0,0,0,0c0,0.3-0.2,0.5-0.5,0.5c0,0,0,0,0,0l0,0C-2932.1-4573.1-2932.3-4573.3-2932.3-4573.5
		C-2932.3-4573.5-2932.3-4573.5-2932.3-4573.5z M-2929.2-4573.5c0-0.3,0.2-0.5,0.5-0.5c0,0,0,0,0,0l0,0c0.3,0,0.5,0.2,0.5,0.5
		c0,0,0,0,0,0c0,0.3-0.2,0.5-0.5,0.5c0,0,0,0,0,0l0,0C-2929-4573.1-2929.2-4573.3-2929.2-4573.5
		C-2929.2-4573.5-2929.2-4573.5-2929.2-4573.5z M-2926.1-4573.5c0-0.3,0.2-0.5,0.5-0.5c0,0,0,0,0,0l0,0c0.3,0,0.5,0.2,0.5,0.5
		c0,0,0,0,0,0c0,0.3-0.2,0.5-0.5,0.5c0,0,0,0,0,0l0,0C-2925.9-4573.1-2926.1-4573.3-2926.1-4573.5
		C-2926.1-4573.5-2926.1-4573.5-2926.1-4573.5z M-2923-4573.5c0-0.3,0.2-0.5,0.5-0.5c0,0,0,0,0,0l0,0c0.3,0,0.5,0.2,0.5,0.5
		c0,0,0,0,0,0l0,0c0,0.3-0.2,0.5-0.5,0.5c0,0,0,0,0,0l0,0C-2922.8-4573.1-2923-4573.3-2923-4573.5L-2923-4573.5z M-2919.9-4573.5
		c0-0.3,0.2-0.5,0.5-0.5c0,0,0,0,0,0l0,0c0.3,0,0.5,0.2,0.5,0.5c0,0,0,0,0,0l0,0c0,0.3-0.2,0.5-0.5,0.5c0,0,0,0,0,0l0,0
		C-2919.7-4573.1-2919.9-4573.3-2919.9-4573.5C-2919.9-4573.5-2919.9-4573.5-2919.9-4573.5z"/>
	<g id="Group_2770" transform="translate(-3049.528 -4552.271)">
		<path id="Path_229" class="st0" d="M72.1,56.5h-8.9l-0.1-0.1L44.8,43.1l0,0c-0.2-0.2-0.2-0.4,0-0.6c0.1-0.1,0.2-0.2,0.3-0.2h7.7
			l0.1,0.1L72.1,56.5z M63.5,55.7h6.2L52.5,43.2h-6.2L63.5,55.7z"/>
		<path id="Line_272" class="st0" d="M26.5,56.4l-0.5-0.7l18.8-13.3l0.5,0.7L26.5,56.4z"/>
		<path id="Line_273" class="st0" d="M64.1,100.9h-0.8V62h0.8V100.9z"/>
		<path id="Line_274" class="st0" d="M26.8,80H26V55.8h0.8L26.8,80z"/>
		<path id="Line_275" class="st0" d="M72.5,92.8h-0.8V60.3h0.8V92.8z"/>
		<g id="Group_158" transform="translate(84.63 127.221)">
			<path id="Rectangle_227" class="st0" d="M-45.9-67.6h13.2v13.4h-13.2V-67.6z M-33.5-66.8h-11.6v11.8h11.6L-33.5-66.8z"/>
			
				<linearGradient id="Rectangle_228_1_" gradientUnits="userSpaceOnUse" x1="-432.1937" y1="216.509" x2="-432.2597" y2="216.401" gradientTransform="matrix(7.809 0 0 -7.654 3463.2766 1391.8038)">
				<stop  offset="0" style="stop-color:#FFCF00"/>
				<stop  offset="1" style="stop-color:#FFF1B2;stop-opacity:0"/>
			</linearGradient>
			<rect id="Rectangle_228" x="-43.2" y="-64.7" class="st9" width="7.8" height="7.7"/>
			<g id="Group_156" transform="translate(20.324)">
				<path id="Path_231" class="st0" d="M-45.5-54.2h-8v-0.8h7.1v-11.8h-7.1v-0.8h7.9L-45.5-54.2z"/>
				<g id="Group_155" transform="translate(2.069 2.12)">
					<path id="Line_276" class="st0" d="M-49.8-66.8h-3.6v-0.8h3.6L-49.8-66.8z"/>
					<path id="Line_277" class="st0" d="M-49.8-65.1h-3.6V-66h3.6L-49.8-65.1z"/>
					<path id="Line_278" class="st0" d="M-49.8-63.4h-3.6v-0.8h3.6L-49.8-63.4z"/>
					<path id="Line_279" class="st0" d="M-49.8-61.7h-3.6v-0.8h3.6L-49.8-61.7z"/>
					<path id="Line_280" class="st0" d="M-49.8-60.1h-3.6v-0.8h3.6L-49.8-60.1z"/>
					<path id="Line_281" class="st0" d="M-49.8-58.4h-3.6v-0.8h3.6L-49.8-58.4z"/>
				</g>
			</g>
			<path id="Path_232" class="st0" d="M-45.5-54.2h-8v-13.4h7.9v0.8h-7v11.8h7.1L-45.5-54.2z"/>
			<g id="Group_157" transform="translate(2.327 2.12)">
				<path id="Line_282" class="st0" d="M-49.8-66.8h-3.6v-0.8h3.6L-49.8-66.8z"/>
				<path id="Line_283" class="st0" d="M-49.8-65.1h-3.6V-66h3.6L-49.8-65.1z"/>
				<path id="Line_284" class="st0" d="M-49.8-63.4h-3.6v-0.8h3.6L-49.8-63.4z"/>
				<path id="Line_285" class="st0" d="M-49.8-61.7h-3.6v-0.8h3.6L-49.8-61.7z"/>
				<path id="Line_286" class="st0" d="M-49.8-60.1h-3.6v-0.8h3.6L-49.8-60.1z"/>
				<path id="Line_287" class="st0" d="M-49.8-58.4h-3.6v-0.8h3.6L-49.8-58.4z"/>
			</g>
		</g>
		<path id="Line_288" class="st0" d="M2.4-21h-31.9v-0.8H2.4V-21z"/>
		<path id="Line_289" class="st0" d="M-10.2,75H-11v-87.8h0.8V75z"/>
		<path id="Line_290" class="st0" d="M-47.6,67.8h-0.8V-5.4h0.8L-47.6,67.8z"/>
		<g id="Group_159" transform="translate(85.091 84.037)">
			<path id="Line_291" class="st0" d="M-46.5-47.3l-0.2-16.3h0.8l0.2,16.3H-46.5z"/>
			<path id="Path_233" class="st4" d="M-48.4-60.7c0.2,0.4,2,3.1,2,3.1"/>
			<path id="Path_233_-_Outline" class="st0" d="M-46.6-57.4c-0.1-0.1-1.8-2.7-2.1-3.1l0.7-0.4c0.2,0.3,2,3.1,2,3.1L-46.6-57.4z"/>
			<path id="Path_234" class="st0" d="M-46.1-67.6c1.5-0.1,3,0.6,3.8,2c0.5,1,0.8,2.2,0.8,3.4c0,0.4,0.1,0.8,0.2,1.2
				c0.8,1.4,0.9,3.1,0.3,4.7c-0.5,0.9-1.3,1.7-2.2,2.2c-1.1,0.6-2.3,1-3.6,1.3c-0.3,0.1-0.7,0.1-1,0.1c-1.5,0-2.9-0.9-3.6-2.2
				c-0.8-1.4-1.4-2.8-1.8-4.4c-0.4-1.8-0.1-3.6,0.9-5.1c0.9-1.5,2.4-2.5,4.1-2.8C-47.6-67.5-46.9-67.6-46.1-67.6z M-47.9-53.6
				c0.3,0,0.5,0,0.8-0.1c2.8-0.6,4.6-1.7,5.2-3c0.5-1.3,0.4-2.8-0.3-4c-0.2-0.5-0.3-1-0.3-1.5c0-1.1-0.2-2.1-0.7-3.1
				c-0.6-1.1-1.9-1.7-3.1-1.6c-0.7,0-1.3,0.1-2,0.2c-1.5,0.3-2.8,1.2-3.6,2.5c-0.8,1.3-1.1,3-0.8,4.5c0.3,1.5,0.9,2.9,1.7,4.1
				C-50.2-54.4-49.1-53.7-47.9-53.6L-47.9-53.6z"/>
		</g>
		<g id="Group_160" transform="translate(70.102 63.032)">
			<path id="Line_292" class="st0" d="M-46.6-49.7l-0.2-13.9h0.8l0.2,13.9H-46.6z"/>
			<path id="Path_235" class="st0" d="M-46.6-57.3c0,0-0.8-0.5-1.6-1c-1.7-1-1.8-1.2-1.9-1.3l0.7-0.4l0,0c1,0.8,2.1,1.5,3.2,2.1
				L-46.6-57.3z"/>
			<path id="Path_236" class="st0" d="M-46.1-67.6c1.9-0.1,3.7,0.7,4.9,2.2c0.8,1.1,1.4,2.3,1.7,3.6c0.1,0.3,0.1,0.5,0.3,0.8
				c0.6,1.2,0.7,2.6,0.1,3.8c-0.7,1.3-1.8,2.2-3.1,2.8c-1.5,0.7-3,1.2-4.6,1.6c-0.3,0.1-0.7,0.1-1,0.1c-1.5,0-2.9-0.9-3.6-2.2
				c-0.8-1.4-1.4-2.8-1.8-4.4c-0.4-1.8-0.1-3.6,0.9-5.1c0.9-1.5,2.4-2.5,4.1-2.8C-47.6-67.5-46.9-67.6-46.1-67.6z M-47.9-53.6
				c0.3,0,0.5,0,0.8-0.1c1.5-0.3,3-0.8,4.4-1.5c1.2-0.5,2.1-1.3,2.7-2.4c0.5-1,0.4-2.1-0.1-3.1c-0.1-0.3-0.2-0.6-0.3-0.9
				c-0.3-1.2-0.8-2.3-1.6-3.3c-0.4-0.6-1-1-1.7-1.3c-0.8-0.4-1.7-0.6-2.6-0.6c-0.7,0-1.4,0.1-2,0.2c-1.5,0.3-2.8,1.2-3.6,2.5
				c-0.8,1.3-1.1,3-0.8,4.5c0.3,1.5,0.9,2.9,1.7,4.1C-50.3-54.4-49.2-53.7-47.9-53.6L-47.9-53.6z"/>
		</g>
		<g id="Group_161" transform="translate(15.204 65.324)">
			<path id="Rectangle_229" class="st0" d="M-53.4-58.6h15.9v7.5h-15.9V-58.6z M-38.3-57.8h-14.3v5.9h14.3L-38.3-57.8z"/>
			<path id="Rectangle_230" class="st0" d="M-53.4-67.6h15.9v7.5h-15.9V-67.6z M-38.3-66.8h-14.3v5.9h14.3L-38.3-66.8z"/>
		</g>
		<g id="Group_162" transform="translate(15.204 89.682)">
			<path id="Rectangle_233" class="st0" d="M-53.4-58.6h15.9v7.5h-15.9V-58.6z M-38.3-57.8h-14.3v5.9h14.3L-38.3-57.8z"/>
			<path id="Rectangle_234" class="st0" d="M-53.4-67.6h15.9v7.5h-15.9V-67.6z M-38.3-66.8h-14.3v5.9h14.3L-38.3-66.8z"/>
			<rect id="Rectangle_235" x="-51.4" y="-65.7" class="st10" width="11.8" height="3.6"/>
			
				<linearGradient id="Rectangle_236_1_" gradientUnits="userSpaceOnUse" x1="-497.0947" y1="497.6182" x2="-497.0467" y2="497.4902" gradientTransform="matrix(11.843 0 0 -3.568 4477.7852 624.9122)">
				<stop  offset="0" style="stop-color:#FFCF00"/>
				<stop  offset="1" style="stop-color:#FFF1B2;stop-opacity:4.300000e-02"/>
			</linearGradient>
			<rect id="Rectangle_236" x="-51.4" y="-56.7" class="st11" width="11.8" height="3.6"/>
		</g>
		<path id="Path_237" class="st0" d="M-24.1,73.4H-25V53.7h-10.7v19.7h-0.8V52.9h12.3L-24.1,73.4z"/>
		<path id="Line_293" class="st0" d="M-53-4.6l-0.5-0.7l23.7-16.5l0.5,0.7L-53-4.6z"/>
		<path id="Line_297" class="st0" d="M-1.8,67.8h-0.8v-85h0.8L-1.8,67.8z"/>
	</g>
	<g id="Layer_2" transform="translate(-3760.445 -4752.486)">
		<g id="Layer_1" transform="translate(-5 -3)">
			<path id="Path_2309" class="st0" d="M546.5,151.7h-75.1l-9.6-18.6c-0.2-0.5-0.1-1.1,0.4-1.3c0.1-0.1,0.3-0.1,0.4-0.1h75.1
				l9.6,18.6c0.2,0.5,0.1,1.1-0.4,1.3C546.8,151.7,546.6,151.7,546.5,151.7L546.5,151.7z M471.9,150.9h74.6c0.1,0,0.2-0.1,0.2-0.2
				c0,0,0-0.1,0-0.1l-9.4-18.2h-74.6c-0.1,0-0.2,0.1-0.2,0.2c0,0,0,0.1,0,0.1L471.9,150.9z"/>
			<path id="Line_525" class="st0" d="M490.1,151.5l-9.9-19.2l0.7-0.4l9.9,19.2L490.1,151.5z"/>
			<path id="Line_526" class="st0" d="M509.1,151.5l-9.9-19.2l0.7-0.4l9.9,19.2L509.1,151.5z"/>
			<path id="Line_527" class="st0" d="M528.1,151.5l-9.9-19.2l0.7-0.4l9.9,19.2L528.1,151.5z"/>
			<path id="Line_528" class="st0" d="M540.4,137.9h-75.8v-0.8h75.8V137.9z"/>
			<path id="Line_529" class="st0" d="M543.8,144.8H468V144h75.8V144.8z"/>
			<path id="Path_2310" class="st0" d="M643.6,151.7h-75.1l-9.6-18.6c-0.3-0.5-0.1-1.1,0.4-1.3c0.1-0.1,0.3-0.1,0.5-0.1h75.1
				l9.6,18.6c0.2,0.5,0.1,1.1-0.4,1.3C643.9,151.7,643.8,151.7,643.6,151.7L643.6,151.7z M569,150.9h74.6c0.1,0,0.2-0.1,0.2-0.2
				c0,0,0-0.1,0-0.1l-9.4-18.2h-74.6c-0.1,0-0.2,0.1-0.2,0.2c0,0,0,0.1,0,0.1v0L569,150.9z"/>
			<path id="Line_530" class="st0" d="M587.2,151.5l-9.9-19.2l0.7-0.4l9.9,19.2L587.2,151.5z"/>
			<path id="Line_531" class="st0" d="M606.3,151.5l-9.9-19.2l0.7-0.4l9.9,19.2L606.3,151.5z"/>
			<path id="Line_532" class="st0" d="M625.3,151.5l-9.9-19.2l0.7-0.4l9.9,19.2L625.3,151.5z"/>
			<path id="Line_533" class="st0" d="M637.6,137.9h-75.8v-0.8h75.8V137.9z"/>
			<path id="Line_534" class="st0" d="M640.9,144.8h-75.8V144h75.8V144.8z"/>
			<path id="Path_287" class="st12" d="M504.5,168.2c-0.3,0-0.5-0.2-0.5-0.5v0c0-0.3,0.2-0.5,0.5-0.5c0.3,0,0.5,0.2,0.5,0.5v0
				C505,168,504.8,168.2,504.5,168.2C504.5,168.2,504.5,168.2,504.5,168.2z M504.5,164.9c-0.3,0-0.5-0.2-0.5-0.5v0
				c0-0.3,0.2-0.5,0.5-0.5c0.3,0,0.5,0.2,0.5,0.5l0,0v0C505,164.7,504.8,164.9,504.5,164.9C504.5,164.9,504.5,164.9,504.5,164.9z
				 M504.5,161.6c-0.3,0-0.5-0.2-0.5-0.5v0c0-0.3,0.2-0.5,0.5-0.5c0.3,0,0.5,0.2,0.5,0.5v0C505,161.4,504.8,161.6,504.5,161.6
				C504.5,161.6,504.5,161.6,504.5,161.6z M504.5,158.3c-0.3,0-0.5-0.2-0.5-0.5v0c0-0.3,0.2-0.5,0.5-0.5c0.3,0,0.5,0.2,0.5,0.5v0
				C505,158.1,504.8,158.3,504.5,158.3C504.5,158.3,504.5,158.3,504.5,158.3L504.5,158.3z M504.5,155c-0.3,0-0.5-0.2-0.5-0.5v0
				c0-0.3,0.2-0.5,0.5-0.5c0.3,0,0.5,0.2,0.5,0.5v0C505,154.8,504.8,155,504.5,155C504.5,155,504.5,155,504.5,155L504.5,155z"/>
			<path id="Path_287-2" class="st12" d="M557.9,142.2L557.9,142.2c-0.3,0-0.5-0.2-0.5-0.5c0-0.3,0.2-0.5,0.5-0.5c0,0,0,0,0,0h0
				c0.3,0,0.5,0.2,0.5,0.5C558.4,141.9,558.2,142.2,557.9,142.2C558,142.2,557.9,142.2,557.9,142.2z M554.7,142.2L554.7,142.2
				c-0.3,0-0.5-0.2-0.5-0.5c0-0.3,0.2-0.5,0.5-0.5c0,0,0,0,0,0h0c0.3,0,0.5,0.2,0.5,0.5C555.2,141.9,554.9,142.2,554.7,142.2
				C554.7,142.2,554.7,142.2,554.7,142.2L554.7,142.2z M551.4,142.2L551.4,142.2c-0.3,0-0.5-0.2-0.5-0.5c0-0.3,0.2-0.5,0.5-0.5
				c0,0,0,0,0,0h0c0.3,0,0.5,0.2,0.5,0.5C551.9,141.9,551.6,142.2,551.4,142.2C551.4,142.2,551.4,142.2,551.4,142.2z M548.1,142.2
				L548.1,142.2c-0.3,0-0.5-0.2-0.5-0.5c0-0.3,0.2-0.5,0.5-0.5c0,0,0,0,0,0h0c0.3,0,0.5,0.2,0.5,0.5
				C548.6,141.9,548.4,142.2,548.1,142.2C548.1,142.2,548.1,142.2,548.1,142.2z"/>
			<path id="Path_287-3" class="st12" d="M599.7,168.2c-0.3,0-0.5-0.2-0.5-0.5v0c0-0.3,0.2-0.5,0.5-0.5c0.3,0,0.5,0.2,0.5,0.5l0,0v0
				C600.2,167.9,599.9,168.2,599.7,168.2C599.7,168.2,599.7,168.2,599.7,168.2z M599.7,164.9c-0.3,0-0.5-0.2-0.5-0.5v0
				c0-0.3,0.2-0.5,0.5-0.5c0.3,0,0.5,0.2,0.5,0.5v0C600.2,164.6,599.9,164.9,599.7,164.9C599.7,164.9,599.7,164.9,599.7,164.9
				L599.7,164.9z M599.7,161.6c-0.3,0-0.5-0.2-0.5-0.5v0c0-0.3,0.2-0.5,0.5-0.5c0.3,0,0.5,0.2,0.5,0.5l0,0v0
				C600.2,161.3,599.9,161.6,599.7,161.6C599.7,161.6,599.7,161.6,599.7,161.6L599.7,161.6z M599.7,158.3c-0.3,0-0.5-0.2-0.5-0.5v0
				c0-0.3,0.2-0.5,0.5-0.5c0.3,0,0.5,0.2,0.5,0.5v0C600.2,158.1,599.9,158.3,599.7,158.3C599.7,158.3,599.7,158.3,599.7,158.3
				L599.7,158.3z M599.7,155c-0.3,0-0.5-0.2-0.5-0.5v0c0-0.3,0.2-0.5,0.5-0.5c0.3,0,0.5,0.2,0.5,0.5v0
				C600.2,154.8,599.9,155,599.7,155C599.7,155,599.7,155,599.7,155L599.7,155z"/>
		</g>
	</g>
</g>
</svg>
