<?xml version="1.0" encoding="UTF-8" standalone="no"?>
<svg
   width="199"
   height="44"
   viewBox="0 0 199 44"
   fill="none"
   version="1.1"
   id="svg9"
   xmlns="http://www.w3.org/2000/svg"
   xmlns:svg="http://www.w3.org/2000/svg">
  <g
     clip-path="url(#clip0_3_9)"
     id="g6">
    <path
       fill-rule="evenodd"
       clip-rule="evenodd"
       d="m 16.1831,44 c 6.1063,0 9.7188,-2.4327 12.7988,-5.8692 l -4.3255,-4.2687 c -2.2507,2.3119 -4.7385,3.8571 -8.1183,3.8571 -5.5187,0 -9.36384,-4.4463 -9.36384,-10.0231 v -0.1193 c 0,-5.4545 3.85114,-9.9619 9.06994,-9.9619 3.5514,0 5.8677,1.6019 8.0543,3.9138 l 4.5044,-4.8057 c -2.9592,-3.1993 -6.6373,-5.3949 -12.505,-5.3949 -9.42343,0 -16.29936484,7.4726 -16.29936484,16.365 v 0.1224 c 0,8.8969 6.87593484,16.186 16.18306484,16.186"
       fill="#231F20"
       id="path1"
       style="fill:#dce0df" />
    <path
       fill-rule="evenodd"
       clip-rule="evenodd"
       d="m 49.6111,37.7192 c 1.7613,-0.0023 3.4794,-0.5454 4.922,-1.5557 v 5.9035 c -1.7898,1.1589 -3.9674,1.8823 -6.6462,1.8823 -7.3517,0 -14.5215,-5.8707 -14.5215,-16.2472 v -0.1253 c 0,-10.3765 7.0534,-16.2472 14.5215,-16.2472 2.6848,0 4.8639,0.6951 6.6462,1.7794 v 5.9915 c -1.4448,-1.0046 -3.1622,-1.5438 -4.922,-1.5452 -4.922,0 -9.0088,3.7959 -9.0088,10.0215 v 0.1223 c 0,6.0482 4.1509,10.0171 9.0088,10.0171 z M 58.5603,16.8453 V 0 H 65.73 V 43.29 H 58.5603 V 16.8378 Z"
       fill="#231F20"
       id="path2"
       style="fill:#dce0df" />
    <path
       fill-rule="evenodd"
       clip-rule="evenodd"
       d="M 74.7418,43.2885 V 11.9784 h 7.1698 V 43.2885 Z M 85.9283,12.7958 c 1.4796,-0.8949 3.2709,-1.4706 5.5186,-1.4706 4.5044,0 7.7067,2.194 9.3641,5.5186 0.886,1.8629 1.306,4.1136 1.306,7.3547 V 43.29 H 94.949 V 25.438 c 0,-4.8609 -2.3715,-7.5889 -6.339,-7.5889 -0.9208,-0.0105 -1.8342,0.1661 -2.6847,0.519 z m 18.0297,0.8696 c 2.007,-1.4722 4.43,-2.3462 7.407,-2.3462 6.82,0 10.965,4.3254 10.965,11.9784 v 19.9865 h -7.169 v -17.785 c 0,-4.9832 -2.311,-7.65 -6.344,-7.65 -0.993,-0.0085 -1.976,0.1949 -2.884,0.5966 -0.347,-1.7019 -1.016,-3.3219 -1.971,-4.7729"
       fill="#231F20"
       id="path3"
       style="fill:#dce0df" />
    <path
       fill-rule="evenodd"
       clip-rule="evenodd"
       d="M 169.986,43.29 V 11.9799 h 7.17 V 43.29 Z m 11.187,-30.4465 c 1.549,-0.9292 3.43,-1.5169 5.76,-1.5169 7.053,0 11.142,4.7446 11.142,11.9785 v 19.9864 h -7.161 V 25.5006 c 0,-4.8624 -2.431,-7.65 -6.699,-7.65 -1.042,-0.0109 -2.075,0.1958 -3.033,0.607 z"
       fill="#231F20"
       id="path4"
       style="fill:#dce0df" />
    <path
       d="m 136.498,27.5768 c 0,4.764 3.025,8.9671 7.501,9.9246 v 6.3972 c -8.551,-0.8949 -14.67,-7.92 -14.67,-16.2054 0,-8.2854 6.115,-15.2852 14.67,-16.2577 v 6.3525 c -4.629,0.8814 -7.501,4.9578 -7.501,9.7888 z"
       fill="url(#paint0_linear_3_9)"
       id="path5"
       style="fill:url(#paint0_linear_3_9)" />
    <path
       d="m 155.521,27.7573 c 0,-4.7639 -3.024,-8.967 -7.501,-9.9246 v -6.3986 c 8.553,0.9023 14.671,7.9214 14.671,16.2069 0,8.2854 -6.115,15.2851 -14.671,16.2576 v -6.3569 c 4.632,-0.883 7.501,-4.9593 7.501,-9.7844 z"
       fill="url(#paint1_linear_3_9)"
       id="path6"
       style="fill:url(#paint1_linear_3_9)" />
  </g>
  <defs
     id="defs9">
    <linearGradient
       id="paint0_linear_3_9"
       x1="136.664"
       y1="10.2364"
       x2="136.664"
       y2="42.694901"
       gradientUnits="userSpaceOnUse">
      <stop
         offset="0.37"
         stop-color="#FF4889"
         id="stop6" />
      <stop
         offset="1"
         stop-color="#FEFD16"
         id="stop7" />
    </linearGradient>
    <linearGradient
       id="paint1_linear_3_9"
       x1="155.35699"
       y1="45.091801"
       x2="155.35699"
       y2="12.6332"
       gradientUnits="userSpaceOnUse">
      <stop
         stop-color="#0161F4"
         id="stop8" />
      <stop
         offset="1"
         stop-color="#00D372"
         id="stop9" />
    </linearGradient>
    <clipPath
       id="clip0_3_9">
      <rect
         width="198.076"
         height="44"
         fill="#ffffff"
         id="rect9"
         x="0"
         y="0" />
    </clipPath>
  </defs>
</svg>
